<?xml version="1.0" encoding="UTF-8" standalone="no"?>
<svg
   width="467.14426"
   zoomAndPan="magnify"
   viewBox="0 0 350.35819 272.65859"
   height="363.5448"
   preserveAspectRatio="xMidYMid"
   version="1.0"
   id="svg243"
   sodipodi:docname="GLEndlogo.svg"
   inkscape:export-filename="..\Users\Alex\Desktop\FH\5. Semester\Teamprojekt\Teamprojekt---Hotel\doc\logos\final_logo.png"
   inkscape:export-xdpi="96"
   inkscape:export-ydpi="96"
   xmlns:inkscape="http://www.inkscape.org/namespaces/inkscape"
   xmlns:sodipodi="http://sodipodi.sourceforge.net/DTD/sodipodi-0.dtd"
   xmlns="http://www.w3.org/2000/svg"
   xmlns:svg="http://www.w3.org/2000/svg">
  <sodipodi:namedview
     id="namedview245"
     pagecolor="#ffffff"
     bordercolor="#000000"
     borderopacity="0.25"
     inkscape:showpageshadow="2"
     inkscape:pageopacity="0.0"
     inkscape:pagecheckerboard="0"
     inkscape:deskcolor="#d1d1d1"
     showgrid="false" />
  <defs
     id="defs25">
    <clipPath
       id="3cc4fe3f1c">
      <path
         d="m 138.10937,159.04297 h 98.83594 v 67.4375 h -98.83594 z m 0,0"
         clip-rule="nonzero"
         id="path4" />
    </clipPath>
    <clipPath
       id="6cef469997">
      <path
         d="m 138.77734,170.75391 h 98.16797 v 55.72656 h -98.16797 z m 0,0"
         clip-rule="nonzero"
         id="path7" />
    </clipPath>
    <clipPath
       id="653ea17b92">
      <path
         d="M 96.777344,88.191406 H 122.27734 V 112.19141 H 96.777344 Z m 0,0"
         clip-rule="nonzero"
         id="path10" />
    </clipPath>
    <clipPath
       id="df407d10ed">
      <path
         d="m 221.28125,59.527344 h 25.5 v 24 h -25.5 z m 0,0"
         clip-rule="nonzero"
         id="path13" />
    </clipPath>
    <clipPath
       id="a24d3db797">
      <path
         d="m 174.71875,47.371094 h 25.5 v 24 h -25.5 z m 0,0"
         clip-rule="nonzero"
         id="path16" />
    </clipPath>
    <clipPath
       id="b75b5ce387">
      <path
         d="m 127.95313,59.527344 h 25.49999 v 24 h -25.49999 z m 0,0"
         clip-rule="nonzero"
         id="path19" />
    </clipPath>
    <clipPath
       id="d8092909dd">
      <path
         d="m 252.65625,88.191406 h 25.5 v 24.000004 h -25.5 z m 0,0"
         clip-rule="nonzero"
         id="path22" />
    </clipPath>
  </defs>
  <g
     clip-path="url(#3cc4fe3f1c)"
     id="g35"
     transform="translate(-11.757814,-47.371094)">
    <path
       fill="#ff3333"
       d="m 141.26953,225.65234 c 8.55078,-13.39453 17.10547,-26.78906 25.65625,-40.18359 5.05469,-7.92188 10.11328,-15.83984 15.16797,-23.75781 -0.48047,0.27734 -0.96484,0.55468 -1.44531,0.82812 4.58593,0.004 9.17187,0.004 13.75781,0.004 -0.48047,-0.27735 -0.96094,-0.55469 -1.44531,-0.82813 8.55468,13.39453 17.10547,26.78516 25.65625,40.1836 5.05859,7.91797 10.11328,15.83593 15.16797,23.7539 1.15625,1.8125 4.05468,0.13282 2.89062,-1.6914 -8.55469,-13.39453 -17.10547,-26.78516 -25.65625,-40.17969 -4.51562,-7.07031 -9.02734,-14.13672 -13.53906,-21.20703 -0.79297,-1.23828 -1.64453,-3.37891 -3.32813,-3.37891 -4.33984,0 -8.67968,0 -13.01562,0 -1.86328,0 -2.52344,1.75781 -3.41016,3.14453 -1.80469,2.82422 -3.60937,5.65235 -5.41406,8.47657 -5.60938,8.78515 -11.21875,17.57031 -16.82813,26.35937 -5.70312,8.92969 -11.40234,17.85938 -17.10546,26.78516 -1.16407,1.82422 1.73437,3.5039 2.89062,1.6914"
       fill-opacity="1"
       fill-rule="nonzero"
       id="path33"
       style="stroke:#ffffff;stroke-width:0.75;stroke-dasharray:none;stroke-opacity:1" />
  </g>
  <path
     fill="#ff3333"
     d="m 184.0586,106.71094 c 0.004,-0.22266 0.0234,-0.44531 0.0469,-0.66797 0,-0.0117 0.004,-0.0312 0.008,-0.0469 0.0156,-0.12891 0.0352,-0.25391 0.0586,-0.37891 0.0664,-0.38672 0.16015,-0.77344 0.25781,-1.15625 0.53125,-2.05078 1.41406,-3.83203 2.84375,-5.601564 5.80078,-7.15625 16.15625,-8.50781 24.75781,-8.53906 2.15625,-0.0117 2.15625,-3.35547 0,-3.34766 -9.52344,0.0391 -20.65625,1.74219 -27.12109,9.52344 -2.29688,2.76172 -4.1836,6.531254 -4.19531,10.214844 -0.008,2.15625 3.33984,2.15625 3.34375,0"
     fill-opacity="1"
     fill-rule="nonzero"
     id="path37"
     style="stroke:#ffffff;stroke-width:0.75;stroke-dasharray:none;stroke-opacity:1" />
  <path
     fill="#ff3333"
     d="m 188.625,85.968746 c 1.29297,-5.41406 6.41406,-9.26562 12.01563,-9.67968 2.14062,-0.15625 2.15234,-3.50391 0,-3.34375 -6.96875,0.51172 -13.5586,5.07812 -15.24219,12.13281 -0.5,2.09765 2.72656,2.98828 3.22656,0.89062"
     fill-opacity="1"
     fill-rule="nonzero"
     id="path39"
     style="stroke:#ffffff;stroke-width:0.75;stroke-dasharray:none;stroke-opacity:1" />
  <path
     fill="#ff3333"
     d="m 140.5,90.328126 c 0.043,0.004 0.082,-0.004 0.1211,-0.008 8.66015,0.0547 18.6914,1.47265 24.5625,8.53906 1.42187,1.710944 2.26171,3.496094 2.8125,5.472654 0.0977,0.35547 0.17968,0.71485 0.2539,1.07422 0.0312,0.16797 0.0625,0.33594 0.0898,0.50391 0,0.0156 0.004,0.0273 0.004,0.0391 0,0.008 0.004,0.0117 0.004,0.0234 0.0273,0.24219 0.0508,0.49219 0.0508,0.73828 0.008,2.15625 3.35547,2.15625 3.34766,0 -0.0156,-3.71484 -1.92188,-7.410164 -4.19532,-10.214844 -6.33984,-7.82422 -17.70312,-9.48828 -27.12109,-9.52344 -0.0156,0 -0.0273,0.004 -0.043,0.004 -3.87109,-0.17579 -6.69141,-3.65625 -5.90234,-7.51172 0.85547,-4.1836 5.65625,-5.89844 9.20312,-3.91797 0.73828,0.41406 1.89844,0.24219 2.28906,-0.60156 1.77735,-3.83203 5.67188,-6.0586 9.89063,-5.21875 4.05859,0.80468 6.82031,4.49218 6.90625,8.53515 0.0469,2.15235 3.39453,2.16016 3.34766,0 -0.1211,-5.48047 -3.66016,-10.125 -8.92969,-11.65625 -5.125,-1.48828 -10.63281,0.94922 -13.39063,5.33985 -5.22656,-1.84375 -11.05468,1.0039 -12.53906,6.6289 -1.59375,6.00391 3.3125,11.58594 9.23828,11.75391"
     fill-opacity="1"
     fill-rule="nonzero"
     id="path41"
     style="stroke:#ffffff;stroke-width:0.75;stroke-dasharray:none;stroke-opacity:1" />
  <g
     clip-path="url(#6cef469997)"
     id="g45"
     style="stroke:#ffffff;stroke-width:0.75;stroke-dasharray:none;stroke-opacity:1"
     transform="translate(-11.757814,-47.371094)">
    <path
       fill="#ff3333"
       d="m 236.67578,223.96094 c -8.98437,-14.06641 -17.96875,-28.13672 -26.95312,-42.20703 -1.60157,-2.51563 -3.20704,-5.02735 -4.8125,-7.53907 -1.03125,-1.61328 -2.35938,-2.26172 -4.33594,-1.57031 -3.17969,1.11719 -5.72266,3.88672 -8.07422,6.16406 -1.34375,1.3086 -3.03516,2.38672 -4.96094,2.35938 -1.50781,-0.0234 -2.79297,-1.16797 -3.76172,-2.19922 -1.04297,-1.11719 -1.8125,-2.48828 -2.5039,-3.83984 -0.78125,-1.51954 -1.46485,-3.05469 -3.14453,-3.76172 -2.59375,-1.09766 -5.23438,0.38672 -7.21875,2.02343 -1.27735,1.05079 -2.0586,2.90625 -2.91407,4.27735 -2.21093,3.55469 -4.41797,7.10547 -6.6289,10.66015 -5.55078,8.91797 -11.10157,17.83985 -16.64844,26.76172 -1.83984,2.95703 -3.67969,5.91407 -5.51953,8.8711 -0.67969,1.08984 0.20312,2.51953 1.4414,2.51953 14.37891,0 28.75391,0 43.12891,0 16.83984,0 33.67969,0 50.51953,0 0.3125,0 0.625,0 0.94141,0 0.63281,0 1.07812,-0.28906 1.33984,-0.69531 0.40625,-0.46875 0.54297,-1.13282 0.10547,-1.82422"
       fill-opacity="1"
       fill-rule="nonzero"
       id="path43"
       style="stroke:#ffffff;stroke-width:0.75;stroke-dasharray:none;stroke-opacity:1" />
  </g>
  <g
     clip-path="url(#653ea17b92)"
     id="g49"
     transform="translate(-11.757814,-47.371094)">
    <path
       fill="#ff3333"
       d="m 109.53125,88.191406 3.28125,7.304688 c 0.125,0.28125 0.32422,0.523437 0.57422,0.703125 0.25391,0.183593 0.54687,0.292969 0.85547,0.324219 l 8.03515,0.835937 -6.0039,5.347655 c -0.23047,0.20703 -0.40235,0.46875 -0.5,0.75781 -0.0937,0.29297 -0.11328,0.60547 -0.0469,0.90625 l 1.6836,7.82032 -6.9961,-4 c -0.26953,-0.15235 -0.57422,-0.23438 -0.88281,-0.23438 -0.3125,0 -0.61719,0.082 -0.88672,0.23438 l -6.99609,4 1.68359,-7.82032 c 0.0664,-0.30078 0.0469,-0.61328 -0.0469,-0.90625 -0.0977,-0.28906 -0.26953,-0.55078 -0.5,-0.75781 l -6.00391,-5.347655 8.03516,-0.835937 c 0.30859,-0.03125 0.60156,-0.140626 0.85547,-0.324219 0.25,-0.179688 0.44921,-0.421875 0.57421,-0.703125 z m 0,0"
       fill-opacity="1"
       fill-rule="evenodd"
       id="path47"
       style="stroke:#ffffff;stroke-opacity:1" />
  </g>
  <g
     clip-path="url(#df407d10ed)"
     id="g53"
     transform="translate(-11.757814,-47.371094)">
    <path
       fill="#ff3333"
       d="m 234.03125,59.527344 3.28516,7.304687 c 0.125,0.28125 0.32421,0.523438 0.57421,0.703125 0.25391,0.179688 0.54688,0.292969 0.85547,0.324219 l 8.03516,0.832031 -6.00781,5.351563 c -0.23047,0.203125 -0.40235,0.464843 -0.4961,0.757812 -0.0977,0.292969 -0.11328,0.605469 -0.0469,0.90625 l 1.67969,7.820313 -6.99219,-4 c -0.26953,-0.15625 -0.57422,-0.234375 -0.88672,-0.234375 -0.30859,0 -0.61328,0.07813 -0.88281,0.234375 l -6.9961,4 1.6836,-7.820313 c 0.0625,-0.300781 0.0469,-0.613281 -0.0469,-0.90625 -0.0977,-0.292969 -0.26953,-0.554687 -0.5,-0.757812 l -6.00781,-5.351563 8.03906,-0.832031 c 0.3086,-0.03125 0.60156,-0.144531 0.85156,-0.324219 0.25391,-0.179687 0.44922,-0.421875 0.57813,-0.703125 z m 0,0"
       fill-opacity="1"
       fill-rule="evenodd"
       id="path51"
       style="stroke:#ffffff;stroke-opacity:1" />
  </g>
  <g
     clip-path="url(#a24d3db797)"
     id="g57"
     transform="translate(-11.757814,-47.371094)">
    <path
       fill="#ff3333"
       d="m 187.46875,47.371094 3.28125,7.304687 c 0.12891,0.28125 0.32422,0.523438 0.57812,0.707031 0.25,0.179688 0.54297,0.289063 0.85157,0.324219 l 8.03906,0.832031 -6.00781,5.347657 c -0.23047,0.207031 -0.40235,0.46875 -0.5,0.761719 -0.0937,0.289062 -0.10938,0.601562 -0.0469,0.902343 l 1.6836,7.820313 -6.9961,-4 c -0.26953,-0.152344 -0.57422,-0.234375 -0.88281,-0.234375 -0.3125,0 -0.61719,0.08203 -0.88672,0.234375 l -6.99219,4 1.67969,-7.820313 c 0.0664,-0.300781 0.0508,-0.613281 -0.0469,-0.902343 -0.0937,-0.292969 -0.26563,-0.554688 -0.4961,-0.761719 l -6.00781,-5.347657 8.03516,-0.832031 c 0.30859,-0.03516 0.60156,-0.144531 0.85546,-0.324219 0.25,-0.183593 0.44922,-0.425781 0.57422,-0.707031 z m 0,0"
       fill-opacity="1"
       fill-rule="evenodd"
       id="path55"
       style="stroke:#ffffff;stroke-opacity:1" />
  </g>
  <g
     clip-path="url(#b75b5ce387)"
     id="g61"
     transform="translate(-11.757814,-47.371094)">
    <path
       fill="#ff3333"
       d="m 140.70312,59.527344 3.28516,7.304687 c 0.125,0.28125 0.32422,0.523438 0.57422,0.703125 0.25391,0.179688 0.54687,0.292969 0.85547,0.324219 l 8.03515,0.832031 -6.0039,5.351563 c -0.23047,0.203125 -0.40235,0.464843 -0.5,0.757812 -0.0977,0.292969 -0.11328,0.605469 -0.0469,0.90625 l 1.6836,7.820313 -6.9961,-4 c -0.26953,-0.15625 -0.57422,-0.234375 -0.88672,-0.234375 -0.30859,0 -0.61328,0.07813 -0.88281,0.234375 l -6.99609,4 1.68359,-7.820313 c 0.0664,-0.300781 0.0469,-0.613281 -0.0469,-0.90625 -0.0977,-0.292969 -0.26953,-0.554687 -0.5,-0.757812 l -6.00391,-5.351563 8.03516,-0.832031 c 0.30859,-0.03125 0.60156,-0.144531 0.85156,-0.324219 0.25391,-0.179687 0.45312,-0.421875 0.57812,-0.703125 z m 0,0"
       fill-opacity="1"
       fill-rule="evenodd"
       id="path59"
       style="stroke:#ffffff;stroke-opacity:1" />
  </g>
  <g
     clip-path="url(#d8092909dd)"
     id="g65"
     transform="translate(-11.757814,-47.371094)">
    <path
       fill="#ff3333"
       d="m 265.40625,88.191406 3.28516,7.304688 c 0.125,0.28125 0.32421,0.523437 0.57421,0.703125 0.25,0.183593 0.54688,0.292969 0.85547,0.324219 l 8.03516,0.835937 -6.00781,5.347655 c -0.23047,0.20703 -0.40235,0.46875 -0.4961,0.75781 -0.0976,0.29297 -0.11328,0.60547 -0.0508,0.90625 l 1.6836,7.82032 -6.9961,-4 c -0.26953,-0.15235 -0.57422,-0.23438 -0.88281,-0.23438 -0.30859,0 -0.61328,0.082 -0.88281,0.23438 l -6.9961,4 1.6836,-7.82032 c 0.0625,-0.30078 0.0469,-0.61328 -0.0508,-0.90625 -0.0937,-0.28906 -0.26563,-0.55078 -0.4961,-0.75781 l -6.00781,-5.347655 8.03516,-0.835937 c 0.30859,-0.03125 0.60546,-0.140626 0.85546,-0.324219 0.25,-0.179688 0.44922,-0.421875 0.57422,-0.703125 z m 0,0"
       fill-opacity="1"
       fill-rule="evenodd"
       id="path63"
       style="stroke:#ffffff;stroke-opacity:1" />
  </g>
  <g
     fill="#ffffff"
     fill-opacity="1"
     id="g73"
     style="fill:#ffffff;fill-opacity:1;stroke:none;stroke-width:0.32475;stroke-dasharray:none;stroke-opacity:1"
     transform="translate(-11.757814,-47.371094)">
    <g
       transform="translate(89.890619,274.73598)"
       id="g71"
       style="fill:#ffffff;fill-opacity:1;stroke:none;stroke-width:0.32475;stroke-dasharray:none;stroke-opacity:1">
      <g
         id="g69"
         style="fill:#ffffff;fill-opacity:1;stroke:none;stroke-width:0.32475;stroke-dasharray:none;stroke-opacity:1">
        <path
           d="m 2.203125,-14.453125 c 0,-5.03125 1.265625,-8.835937 3.796875,-11.421875 2.53125,-2.582031 6.164062,-3.875 10.90625,-3.875 1.5,0 2.800781,0.136719 3.90625,0.40625 1.113281,0.261719 2.273438,0.601562 3.484375,1.015625 1.28125,0.460937 2.210937,0.6875 2.796875,0.6875 -0.125,0.65625 -0.1875,1.789063 -0.1875,3.390625 0,0.460938 0.03125,1.078125 0.09375,1.859375 0.0625,0.523437 0.09375,0.914063 0.09375,1.171875 h -1.953125 c 0.03125,-0.164062 0.04687,-0.410156 0.04687,-0.734375 0,-2.050781 -0.730469,-3.65625 -2.1875,-4.8125 -1.449219,-1.164063 -3.5625,-1.75 -6.34375,-1.75 -2.84375,0 -5.132812,1.195313 -6.859375,3.578125 -1.730469,2.386719 -2.59375,5.882812 -2.59375,10.484375 0,9.085937 3.234375,13.625 9.703125,13.625 1.46875,0 2.660156,-0.15625 3.578125,-0.46875 0.914063,-0.3125 1.8125,-0.910156 2.6875,-1.796875 v -7.828125 C 23.171875,-11.640625 22.863281,-12 22.25,-12 l -2.890625,0.09375 v -1.421875 h 11.3125 v 1.421875 l -2,-0.09375 c -0.304687,0 -0.539063,0.101562 -0.703125,0.296875 -0.15625,0.1875 -0.234375,0.433594 -0.234375,0.734375 v 9.25 C 27.597656,-1.75 27.382812,-1.765625 27.09375,-1.765625 c -0.617188,0 -1.625,0.261719 -3.03125,0.78125 -1.4375,0.492187 -2.6875,0.855469 -3.75,1.09375 -1.0625,0.25 -2.28125,0.375 -3.65625,0.375 C 12.082031,0.484375 8.53125,-0.78125 6,-3.3125 3.46875,-5.84375 2.203125,-9.554688 2.203125,-14.453125 Z m 0,0"
           id="path67"
           style="fill:#ffffff;fill-opacity:1;stroke:none;stroke-width:0.32475;stroke-dasharray:none;stroke-opacity:1" />
      </g>
    </g>
  </g>
  <g
     fill="#ffffff"
     fill-opacity="1"
     id="g81"
     style="fill:#ffffff;fill-opacity:1;stroke:none;stroke-width:0.32475;stroke-dasharray:none;stroke-opacity:1"
     transform="translate(-11.757814,-47.371094)">
    <g
       transform="translate(121.54209,274.73598)"
       id="g79"
       style="fill:#ffffff;fill-opacity:1;stroke:none;stroke-width:0.32475;stroke-dasharray:none;stroke-opacity:1">
      <g
         id="g77"
         style="fill:#ffffff;fill-opacity:1;stroke:none;stroke-width:0.32475;stroke-dasharray:none;stroke-opacity:1">
        <path
           d="m 14.0625,-21.0625 c 1.269531,0 2.253906,0.359375 2.953125,1.078125 0.707031,0.71875 1.0625,1.632813 1.0625,2.734375 0,0.75 -0.1875,1.324219 -0.5625,1.71875 -0.375,0.398438 -0.875,0.59375 -1.5,0.59375 -0.449219,0 -0.867187,-0.125 -1.25,-0.375 -0.375,-0.25 -0.5625,-0.632812 -0.5625,-1.15625 0,-0.289062 0.06641,-0.664062 0.203125,-1.125 0.132812,-0.457031 0.203125,-0.816406 0.203125,-1.078125 0,-0.257813 -0.09375,-0.492187 -0.28125,-0.703125 -0.179687,-0.21875 -0.464844,-0.328125 -0.859375,-0.328125 -1.011719,0 -1.890625,0.484375 -2.640625,1.453125 -0.75,0.960938 -1.339844,2.152344 -1.765625,3.578125 -0.429688,1.417969 -0.671875,2.78125 -0.734375,4.09375 v 8.46875 c 0,0.625 0.210937,0.9375 0.640625,0.9375 L 11.953125,-1.28125 V 0 H 1.90625 v -1.28125 l 1.578125,0.109375 c 0.414063,0 0.625,-0.3125 0.625,-0.9375 v -16.3125 c 0,-0.65625 -0.210937,-0.984375 -0.625,-0.984375 L 1.71875,-19.3125 v -1.265625 H 8.625 c -0.0625,0.199219 -0.132812,0.515625 -0.203125,0.953125 -0.0625,0.4375 -0.09375,0.871094 -0.09375,1.296875 v 2.40625 c 0.75,-1.832031 1.585937,-3.144531 2.515625,-3.9375 0.9375,-0.800781 2.007812,-1.203125 3.21875,-1.203125 z m 0,0"
           id="path75"
           style="fill:#ffffff;fill-opacity:1;stroke:none;stroke-width:0.32475;stroke-dasharray:none;stroke-opacity:1" />
      </g>
    </g>
  </g>
  <g
     fill="#ffffff"
     fill-opacity="1"
     id="g89"
     style="fill:#ffffff;fill-opacity:1;stroke:none;stroke-width:0.32475;stroke-dasharray:none;stroke-opacity:1"
     transform="translate(-11.757814,-47.371094)">
    <g
       transform="translate(140.3076,274.73598)"
       id="g87"
       style="fill:#ffffff;fill-opacity:1;stroke:none;stroke-width:0.32475;stroke-dasharray:none;stroke-opacity:1">
      <g
         id="g85"
         style="fill:#ffffff;fill-opacity:1;stroke:none;stroke-width:0.32475;stroke-dasharray:none;stroke-opacity:1">
        <path
           d="M 21.0625,-1.28125 V 0 h -6.953125 c 0.03125,-0.226562 0.07031,-0.53125 0.125,-0.90625 0.05078,-0.375 0.07813,-0.675781 0.07813,-0.90625 l 0.09375,-1.90625 C 13.6875,-2.3125 12.765625,-1.296875 11.640625,-0.671875 10.515625,-0.0546875 9.164062,0.25 7.59375,0.25 c -2.054688,0 -3.609375,-0.460938 -4.671875,-1.390625 -1.0625,-0.9375 -1.59375,-2.320313 -1.59375,-4.15625 0,-2.507813 1.050781,-4.359375 3.15625,-5.546875 2.101563,-1.195312 5.410156,-1.796875 9.921875,-1.796875 v -2.84375 c 0,-1.53125 -0.359375,-2.625 -1.078125,-3.28125 C 12.609375,-19.421875 11.445312,-19.75 9.84375,-19.75 c -2.480469,0 -3.71875,0.6875 -3.71875,2.0625 0,0.261719 0.070312,0.5625 0.21875,0.90625 0.144531,0.34375 0.21875,0.664062 0.21875,0.953125 0,0.554687 -0.183594,0.96875 -0.546875,1.25 -0.355469,0.28125 -0.808594,0.421875 -1.359375,0.421875 -0.6875,0 -1.21875,-0.210938 -1.59375,-0.640625 C 2.6875,-15.222656 2.5,-15.78125 2.5,-16.46875 c 0,-1.363281 0.71875,-2.46875 2.15625,-3.3125 1.4375,-0.851562 3.363281,-1.28125 5.78125,-1.28125 5.457031,0 8.1875,2.304688 8.1875,6.90625 v 12.046875 c 0,0.625 0.207031,0.9375 0.625,0.9375 z m -12,-0.234375 c 1.4375,0 2.660156,-0.59375 3.671875,-1.78125 1.019531,-1.195313 1.578125,-2.742187 1.671875,-4.640625 v -3.375 c -3.074219,0 -5.28125,0.449219 -6.625,1.34375 -1.335938,0.898438 -2,2.324219 -2,4.28125 0,1.375 0.285156,2.417969 0.859375,3.125 0.570313,0.699219 1.378906,1.046875 2.421875,1.046875 z m 0,0"
           id="path83"
           style="fill:#ffffff;fill-opacity:1;stroke:none;stroke-width:0.32475;stroke-dasharray:none;stroke-opacity:1" />
      </g>
    </g>
  </g>
  <g
     fill="#ffffff"
     fill-opacity="1"
     id="g97"
     style="fill:#ffffff;fill-opacity:1;stroke:none;stroke-width:0.32475;stroke-dasharray:none;stroke-opacity:1"
     transform="translate(-11.757814,-47.371094)">
    <g
       transform="translate(162.35584,274.73598)"
       id="g95"
       style="fill:#ffffff;fill-opacity:1;stroke:none;stroke-width:0.32475;stroke-dasharray:none;stroke-opacity:1">
      <g
         id="g93"
         style="fill:#ffffff;fill-opacity:1;stroke:none;stroke-width:0.32475;stroke-dasharray:none;stroke-opacity:1">
        <path
           d="M 24.75,-1.28125 V 0 h -9.5625 v -1.28125 l 2.25,0.109375 c 0.425781,-0.101563 0.640625,-0.414063 0.640625,-0.9375 v -11.125 c 0,-1.5625 -0.07422,-2.765625 -0.21875,-3.609375 -0.148437,-0.851562 -0.449219,-1.507812 -0.90625,-1.96875 -0.460937,-0.457031 -1.179687,-0.6875 -2.15625,-0.6875 -1.867187,0 -3.375,0.792969 -4.53125,2.375 -1.15625,1.585938 -1.789063,3.714844 -1.890625,6.390625 v 8.625 c 0,0.625 0.210938,0.9375 0.640625,0.9375 l 2.25,-0.109375 V 0 H 1.71875 v -1.28125 l 1.8125,0.109375 c 0.425781,-0.101563 0.640625,-0.414063 0.640625,-0.9375 v -16.3125 c 0,-0.550781 -0.214844,-0.878906 -0.640625,-0.984375 l -1.8125,0.09375 v -1.265625 H 8.625 c -0.167969,0.492187 -0.25,1.0625 -0.25,1.71875 v 2.6875 c 0.6875,-1.53125 1.664062,-2.726563 2.9375,-3.59375 1.28125,-0.863281 2.753906,-1.296875 4.421875,-1.296875 2.3125,0 3.984375,0.546875 5.015625,1.640625 1.03125,1.09375 1.546875,2.867187 1.546875,5.3125 v 12 c 0,0.625 0.210937,0.9375 0.640625,0.9375 z m 0,0"
           id="path91"
           style="fill:#ffffff;fill-opacity:1;stroke:none;stroke-width:0.32475;stroke-dasharray:none;stroke-opacity:1" />
      </g>
    </g>
  </g>
  <g
     fill="#ffffff"
     fill-opacity="1"
     id="g105"
     style="fill:#ffffff;fill-opacity:1;stroke:none;stroke-width:0.32475;stroke-dasharray:none;stroke-opacity:1"
     transform="translate(-11.757814,-47.371094)">
    <g
       transform="translate(188.07878,274.73598)"
       id="g103"
       style="fill:#ffffff;fill-opacity:1;stroke:none;stroke-width:0.32475;stroke-dasharray:none;stroke-opacity:1">
      <g
         id="g101"
         style="fill:#ffffff;fill-opacity:1;stroke:none;stroke-width:0.32475;stroke-dasharray:none;stroke-opacity:1">
        <path
           d="m 1.71875,-10.234375 c 0,-3.5625 0.773438,-6.253906 2.328125,-8.078125 1.550781,-1.832031 3.859375,-2.75 6.921875,-2.75 1.507812,0 2.742188,0.375 3.703125,1.125 0.96875,0.75 1.613281,1.714844 1.9375,2.890625 V -33.65625 c 0,-0.65625 -0.214844,-0.984375 -0.640625,-0.984375 l -2.25,0.09375 v -1.21875 H 20.875 v 33.65625 c 0,0.625 0.210938,0.9375 0.640625,0.9375 l 1.8125,-0.109375 V 0 h -7.0625 c 0.0625,-0.257812 0.09375,-0.519531 0.09375,-0.78125 v -1.078125 c 0,-0.425781 0.01563,-0.753906 0.04687,-0.984375 0.03906,-0.226562 0.0625,-0.375 0.0625,-0.4375 -0.398438,1.210938 -1.027344,2.140625 -1.890625,2.796875 -0.867182,0.644531 -2.04687,0.96875 -3.54687,0.96875 C 7.695312,0.484375 5.3125,-0.382812 3.875,-2.125 2.4375,-3.875 1.71875,-6.578125 1.71875,-10.234375 Z m 4.5,0 c 0,2.386719 0.140625,4.25 0.421875,5.59375 0.28125,1.335937 0.757813,2.304687 1.4375,2.90625 0.6875,0.605469 1.671875,0.90625 2.953125,0.90625 1.988281,0 3.398438,-0.648437 4.234375,-1.953125 0.832031,-1.3125 1.25,-3.390625 1.25,-6.234375 v -2.0625 c 0,-2.738281 -0.460937,-4.867187 -1.375,-6.390625 -0.917969,-1.519531 -2.308594,-2.28125 -4.171875,-2.28125 -1.761719,0 -2.996094,0.820312 -3.703125,2.453125 -0.699219,1.636719 -1.046875,3.992187 -1.046875,7.0625 z m 0,0"
           id="path99"
           style="fill:#ffffff;fill-opacity:1;stroke:none;stroke-width:0.32475;stroke-dasharray:none;stroke-opacity:1" />
      </g>
    </g>
  </g>
  <g
     fill="#ffffff"
     fill-opacity="1"
     id="g113"
     style="fill:#ffffff;fill-opacity:1;stroke:none;stroke-width:0.32475;stroke-dasharray:none;stroke-opacity:1"
     transform="translate(-11.757814,-47.371094)">
    <g
       transform="translate(212.38084,274.73598)"
       id="g111"
       style="fill:#ffffff;fill-opacity:1;stroke:none;stroke-width:0.32475;stroke-dasharray:none;stroke-opacity:1">
      <g
         id="g109"
         style="fill:#ffffff;fill-opacity:1;stroke:none;stroke-width:0.32475;stroke-dasharray:none;stroke-opacity:1">
        <path
           d="m 1.71875,-1.28125 1.8125,0.109375 c 0.425781,-0.101563 0.640625,-0.414063 0.640625,-0.9375 V -33.65625 c 0,-0.5625 -0.199219,-0.90625 -0.59375,-1.03125 l -1.8125,0.09375 V -35.8125 H 8.375 v 33.703125 c 0,0.625 0.210938,0.9375 0.640625,0.9375 L 10.78125,-1.28125 V 0 h -9.0625 z m 0,0"
           id="path107"
           style="fill:#ffffff;fill-opacity:1;stroke:none;stroke-width:0.32475;stroke-dasharray:none;stroke-opacity:1" />
      </g>
    </g>
  </g>
  <g
     fill="#ffffff"
     fill-opacity="1"
     id="g121"
     style="fill:#ffffff;fill-opacity:1;stroke:none;stroke-width:0.32475;stroke-dasharray:none;stroke-opacity:1"
     transform="translate(-11.757814,-47.371094)">
    <g
       transform="translate(224.87485,274.73598)"
       id="g119"
       style="fill:#ffffff;fill-opacity:1;stroke:none;stroke-width:0.32475;stroke-dasharray:none;stroke-opacity:1">
      <g
         id="g117"
         style="fill:#ffffff;fill-opacity:1;stroke:none;stroke-width:0.32475;stroke-dasharray:none;stroke-opacity:1">
        <path
           d="m 5.921875,-31.5 c 0.789063,0 1.4375,0.214844 1.9375,0.640625 0.507813,0.417969 0.765625,0.96875 0.765625,1.65625 0,0.75 -0.246094,1.328125 -0.734375,1.734375 -0.492187,0.40625 -1.148437,0.609375 -1.96875,0.609375 -0.78125,0 -1.417969,-0.203125 -1.90625,-0.609375 -0.492187,-0.40625 -0.734375,-0.984375 -0.734375,-1.734375 0,-0.6875 0.242188,-1.238281 0.734375,-1.65625 C 4.503906,-31.285156 5.140625,-31.5 5.921875,-31.5 Z M 8.375,-2.109375 c 0,0.625 0.210938,0.9375 0.640625,0.9375 L 10.78125,-1.28125 V 0 h -9.0625 v -1.28125 l 1.8125,0.109375 c 0.425781,0 0.640625,-0.3125 0.640625,-0.9375 v -16.3125 c 0,-0.550781 -0.199219,-0.878906 -0.59375,-0.984375 l -1.8125,0.09375 v -1.265625 H 8.375 Z m 0,0"
           id="path115"
           style="fill:#ffffff;fill-opacity:1;stroke:none;stroke-width:0.32475;stroke-dasharray:none;stroke-opacity:1" />
      </g>
    </g>
  </g>
  <g
     fill="#ffffff"
     fill-opacity="1"
     id="g129"
     style="fill:#ffffff;fill-opacity:1;stroke:none;stroke-width:0.32475;stroke-dasharray:none;stroke-opacity:1"
     transform="translate(-11.757814,-47.371094)">
    <g
       transform="translate(237.36886,274.73598)"
       id="g127"
       style="fill:#ffffff;fill-opacity:1;stroke:none;stroke-width:0.32475;stroke-dasharray:none;stroke-opacity:1">
      <g
         id="g125"
         style="fill:#ffffff;fill-opacity:1;stroke:none;stroke-width:0.32475;stroke-dasharray:none;stroke-opacity:1">
        <path
           d="M 24.75,-1.28125 V 0 h -9.5625 v -1.28125 l 2.25,0.109375 c 0.425781,-0.101563 0.640625,-0.414063 0.640625,-0.9375 v -11.125 c 0,-1.5625 -0.07422,-2.765625 -0.21875,-3.609375 -0.148437,-0.851562 -0.449219,-1.507812 -0.90625,-1.96875 -0.460937,-0.457031 -1.179687,-0.6875 -2.15625,-0.6875 -1.867187,0 -3.375,0.792969 -4.53125,2.375 -1.15625,1.585938 -1.789063,3.714844 -1.890625,6.390625 v 8.625 c 0,0.625 0.210938,0.9375 0.640625,0.9375 l 2.25,-0.109375 V 0 H 1.71875 v -1.28125 l 1.8125,0.109375 c 0.425781,-0.101563 0.640625,-0.414063 0.640625,-0.9375 v -16.3125 c 0,-0.550781 -0.214844,-0.878906 -0.640625,-0.984375 l -1.8125,0.09375 v -1.265625 H 8.625 c -0.167969,0.492187 -0.25,1.0625 -0.25,1.71875 v 2.6875 c 0.6875,-1.53125 1.664062,-2.726563 2.9375,-3.59375 1.28125,-0.863281 2.753906,-1.296875 4.421875,-1.296875 2.3125,0 3.984375,0.546875 5.015625,1.640625 1.03125,1.09375 1.546875,2.867187 1.546875,5.3125 v 12 c 0,0.625 0.210937,0.9375 0.640625,0.9375 z m 0,0"
           id="path123"
           style="fill:#ffffff;fill-opacity:1;stroke:none;stroke-width:0.32475;stroke-dasharray:none;stroke-opacity:1" />
      </g>
    </g>
  </g>
  <g
     fill="#ffffff"
     fill-opacity="1"
     id="g137"
     style="fill:#ffffff;fill-opacity:1;stroke:none;stroke-width:0.32475;stroke-dasharray:none;stroke-opacity:1"
     transform="translate(-11.757814,-47.371094)">
    <g
       transform="translate(263.0918,274.73598)"
       id="g135"
       style="fill:#ffffff;fill-opacity:1;stroke:none;stroke-width:0.32475;stroke-dasharray:none;stroke-opacity:1">
      <g
         id="g133"
         style="fill:#ffffff;fill-opacity:1;stroke:none;stroke-width:0.32475;stroke-dasharray:none;stroke-opacity:1">
        <path
           d="m 11.5625,-21.0625 c 2.582031,0 4.664062,0.824219 6.25,2.46875 1.582031,1.648438 2.40625,3.90625 2.46875,6.78125 v 1.421875 H 6.171875 c 0,2.980469 0.515625,5.261719 1.546875,6.84375 1.03125,1.585937 2.570312,2.390625 4.625,2.421875 1.632812,0 3.015625,-0.40625 4.140625,-1.21875 1.125,-0.820312 1.953125,-1.835938 2.484375,-3.046875 l 1.125,0.828125 c -0.65625,1.574219 -1.761719,2.808594 -3.3125,3.703125 -1.554688,0.8945312 -3.261719,1.34375 -5.125,1.34375 -6.625,0 -9.9375,-3.570313 -9.9375,-10.71875 0,-3.5625 0.832031,-6.253906 2.5,-8.078125 1.664062,-1.832031 4.113281,-2.75 7.34375,-2.75 z m 0,1.3125 c -1.835938,0 -3.183594,0.757812 -4.046875,2.265625 -0.867187,1.5 -1.296875,3.460937 -1.296875,5.875 h 8.921875 c 0.320313,0 0.566406,-0.113281 0.734375,-0.34375 0.164062,-0.226563 0.25,-0.65625 0.25,-1.28125 0,-2.21875 -0.355469,-3.859375 -1.0625,-4.921875 -0.699219,-1.0625 -1.867188,-1.59375 -3.5,-1.59375 z m 0,0"
           id="path131"
           style="fill:#ffffff;fill-opacity:1;stroke:none;stroke-width:0.32475;stroke-dasharray:none;stroke-opacity:1" />
      </g>
    </g>
  </g>
  <g
     fill="#ffffff"
     fill-opacity="1"
     id="g145"
     style="fill:#ffffff;fill-opacity:1;stroke:none;stroke-width:0.32475;stroke-dasharray:none;stroke-opacity:1"
     transform="translate(-11.757814,-47.371094)">
    <g
       transform="translate(150.35937,319.68595)"
       id="g143"
       style="fill:#ffffff;fill-opacity:1;stroke:none;stroke-width:0.32475;stroke-dasharray:none;stroke-opacity:1">
      <g
         id="g141"
         style="fill:#ffffff;fill-opacity:1;stroke:none;stroke-width:0.32475;stroke-dasharray:none;stroke-opacity:1">
        <path
           d="m 1.703125,-0.984375 1.328125,0.0625 c 0.425781,0 0.640625,-0.25 0.640625,-0.75 V -18.625 c 0,-0.5 -0.214844,-0.738281 -0.640625,-0.71875 l -1.328125,0.0625 v -1.015625 H 9.1875 v 1.015625 l -1.671875,-0.0625 h -0.0625 c -0.210937,0 -0.367187,0.07031 -0.46875,0.203125 -0.105469,0.136719 -0.15625,0.308594 -0.15625,0.515625 v 7.671875 h 10 V -18.625 c 0,-0.5 -0.214844,-0.738281 -0.640625,-0.71875 l -1.671875,0.0625 v -1.015625 h 7.453125 v 1.015625 l -1.328125,-0.0625 H 20.5625 c -0.179688,0 -0.320312,0.07031 -0.421875,0.203125 -0.105469,0.136719 -0.15625,0.308594 -0.15625,0.515625 v 16.953125 c 0,0.5 0.21875,0.75 0.65625,0.75 l 1.328125,-0.0625 V 0 h -7.453125 v -0.984375 l 1.671875,0.0625 c 0.425781,0 0.640625,-0.25 0.640625,-0.75 V -10 h -10 v 8.328125 c 0,0.5 0.226563,0.75 0.6875,0.75 L 9.1875,-0.984375 V 0 H 1.703125 Z m 0,0"
           id="path139"
           style="fill:#ffffff;fill-opacity:1;stroke:none;stroke-width:0.32475;stroke-dasharray:none;stroke-opacity:1" />
      </g>
    </g>
  </g>
  <g
     fill="#ffffff"
     fill-opacity="1"
     id="g153"
     style="fill:#ffffff;fill-opacity:1;stroke:none;stroke-width:0.32475;stroke-dasharray:none;stroke-opacity:1"
     transform="translate(-11.757814,-47.371094)">
    <g
       transform="translate(174.02065,319.68595)"
       id="g151"
       style="fill:#ffffff;fill-opacity:1;stroke:none;stroke-width:0.32475;stroke-dasharray:none;stroke-opacity:1">
      <g
         id="g149"
         style="fill:#ffffff;fill-opacity:1;stroke:none;stroke-width:0.32475;stroke-dasharray:none;stroke-opacity:1">
        <path
           d="m 1.1875,-7.171875 c 0,-2.3125 0.578125,-4.128906 1.734375,-5.453125 1.15625,-1.332031 2.859375,-2 5.109375,-2 2.238281,0 3.9375,0.667969 5.09375,2 1.15625,1.324219 1.734375,3.140625 1.734375,5.453125 0,2.355469 -0.578125,4.199219 -1.734375,5.53125 -1.15625,1.324219 -2.855469,1.984375 -5.09375,1.984375 -2.25,0 -3.953125,-0.660156 -5.109375,-1.984375 C 1.765625,-2.972656 1.1875,-4.816406 1.1875,-7.171875 Z m 3.09375,0.0625 c 0,2.292969 0.285156,3.953125 0.859375,4.984375 0.582031,1.03125 1.546875,1.546875 2.890625,1.546875 1.332031,0 2.285156,-0.515625 2.859375,-1.546875 0.582031,-1.03125 0.875,-2.691406 0.875,-4.984375 0,-2.3125 -0.292969,-3.988281 -0.875,-5.03125 -0.574219,-1.039063 -1.527344,-1.5625 -2.859375,-1.5625 -1.34375,0 -2.308594,0.523437 -2.890625,1.5625 -0.574219,1.042969 -0.859375,2.71875 -0.859375,5.03125 z m 0,0"
           id="path147"
           style="fill:#ffffff;fill-opacity:1;stroke:none;stroke-width:0.32475;stroke-dasharray:none;stroke-opacity:1" />
      </g>
    </g>
  </g>
  <g
     fill="#ffffff"
     fill-opacity="1"
     id="g161"
     style="fill:#ffffff;fill-opacity:1;stroke:none;stroke-width:0.32475;stroke-dasharray:none;stroke-opacity:1"
     transform="translate(-11.757814,-47.371094)">
    <g
       transform="translate(190.06681,319.68595)"
       id="g159"
       style="fill:#ffffff;fill-opacity:1;stroke:none;stroke-width:0.32475;stroke-dasharray:none;stroke-opacity:1">
      <g
         id="g157"
         style="fill:#ffffff;fill-opacity:1;stroke:none;stroke-width:0.32475;stroke-dasharray:none;stroke-opacity:1">
        <path
           d="m 5.8125,-14.28125 h 3.734375 v 0.84375 H 5.8125 v 10.453125 c 0,0.855469 0.097656,1.4375 0.296875,1.75 0.207031,0.304687 0.570313,0.453125 1.09375,0.453125 0.34375,0 0.695313,-0.128906 1.0625,-0.390625 0.363281,-0.257813 0.597656,-0.582031 0.703125,-0.96875 l 0.71875,0.4375 c -0.449219,1.273437 -1.648438,1.90625 -3.59375,1.90625 -1.15625,0 -1.980469,-0.2695312 -2.46875,-0.8125 C 3.132812,-1.148438 2.890625,-2.035156 2.890625,-3.265625 V -13.4375 H 0.84375 v -0.84375 c 0.90625,0 1.597656,-0.08203 2.078125,-0.25 0.476563,-0.175781 0.859375,-0.5 1.140625,-0.96875 0.28125,-0.476562 0.546875,-1.226562 0.796875,-2.25 H 5.8125 Z m 0,0"
           id="path155"
           style="fill:#ffffff;fill-opacity:1;stroke:none;stroke-width:0.32475;stroke-dasharray:none;stroke-opacity:1" />
      </g>
    </g>
  </g>
  <g
     fill="#ffffff"
     fill-opacity="1"
     id="g169"
     style="fill:#ffffff;fill-opacity:1;stroke:none;stroke-width:0.32475;stroke-dasharray:none;stroke-opacity:1"
     transform="translate(-11.757814,-47.371094)">
    <g
       transform="translate(200.7076,319.68595)"
       id="g167"
       style="fill:#ffffff;fill-opacity:1;stroke:none;stroke-width:0.32475;stroke-dasharray:none;stroke-opacity:1">
      <g
         id="g165"
         style="fill:#ffffff;fill-opacity:1;stroke:none;stroke-width:0.32475;stroke-dasharray:none;stroke-opacity:1">
        <path
           d="m 8.03125,-14.625 c 1.78125,0 3.222656,0.574219 4.328125,1.71875 1.101563,1.148438 1.675781,2.71875 1.71875,4.71875 v 0.984375 H 4.28125 c 0,2.0625 0.351562,3.648437 1.0625,4.75 0.71875,1.09375 1.789062,1.652344 3.21875,1.671875 1.132812,0 2.09375,-0.28125 2.875,-0.84375 0.78125,-0.570312 1.351562,-1.273438 1.71875,-2.109375 l 0.78125,0.578125 c -0.449219,1.085938 -1.214844,1.9375 -2.296875,2.5625 -1.074219,0.625 -2.257813,0.9375 -3.546875,0.9375 -4.605469,0 -6.90625,-2.484375 -6.90625,-7.453125 0,-2.46875 0.578125,-4.335937 1.734375,-5.609375 1.15625,-1.269531 2.859375,-1.90625 5.109375,-1.90625 z m 0,0.921875 c -1.273438,0 -2.210938,0.523437 -2.8125,1.5625 C 4.613281,-11.097656 4.3125,-9.738281 4.3125,-8.0625 H 10.5 c 0.226562,0 0.398438,-0.078125 0.515625,-0.234375 C 11.128906,-8.453125 11.1875,-8.75 11.1875,-9.1875 c 0,-1.53125 -0.246094,-2.664062 -0.734375,-3.40625 -0.492187,-0.738281 -1.296875,-1.109375 -2.421875,-1.109375 z m 0,0"
           id="path163"
           style="fill:#ffffff;fill-opacity:1;stroke:none;stroke-width:0.32475;stroke-dasharray:none;stroke-opacity:1" />
      </g>
    </g>
  </g>
  <g
     fill="#ffffff"
     fill-opacity="1"
     id="g177"
     style="fill:#ffffff;fill-opacity:1;stroke:none;stroke-width:0.32475;stroke-dasharray:none;stroke-opacity:1"
     transform="translate(-11.757814,-47.371094)">
    <g
       transform="translate(215.97185,319.68595)"
       id="g175"
       style="fill:#ffffff;fill-opacity:1;stroke:none;stroke-width:0.32475;stroke-dasharray:none;stroke-opacity:1">
      <g
         id="g173"
         style="fill:#ffffff;fill-opacity:1;stroke:none;stroke-width:0.32475;stroke-dasharray:none;stroke-opacity:1">
        <path
           d="M 1.1875,-0.890625 2.453125,-0.8125 c 0.289063,-0.070312 0.4375,-0.289062 0.4375,-0.65625 v -21.890625 c 0,-0.382813 -0.136719,-0.625 -0.40625,-0.71875 L 1.21875,-24 v -0.859375 H 5.8125 V -1.46875 c 0,0.4375 0.144531,0.65625 0.4375,0.65625 L 7.484375,-0.890625 V 0 H 1.1875 Z m 0,0"
           id="path171"
           style="fill:#ffffff;fill-opacity:1;stroke:none;stroke-width:0.32475;stroke-dasharray:none;stroke-opacity:1" />
      </g>
    </g>
  </g>
  <g
     fill="#ffffff"
     fill-opacity="1"
     id="g185"
     transform="translate(-11.757814,-47.371094)">
    <g
       transform="translate(9.382814,182.19998)"
       id="g183">
      <g
         id="g181">
        <path
           d="m 4.21875,-7.40625 v 5.875 h 8 V 0 H 2.375 v -15.703125 h 9.671875 V -14.1875 H 4.21875 v 5.265625 H 11.125 v 1.515625 z m 0,0"
           id="path179" />
      </g>
    </g>
  </g>
  <g
     fill="#ffffff"
     fill-opacity="1"
     id="g193"
     transform="translate(-11.757814,-47.371094)">
    <g
       transform="translate(22.647065,182.19998)"
       id="g191">
      <g
         id="g189">
        <path
           d="m 6.859375,0.21875 c -0.992187,0 -1.875,-0.1328125 -2.65625,-0.390625 -0.78125,-0.269531 -1.433594,-0.625 -1.953125,-1.0625 -0.523438,-0.4375 -0.914062,-0.914063 -1.171875,-1.4375 l 1,-1.234375 h 0.28125 c 0.96875,1.648438 2.46875,2.46875 4.5,2.46875 1.1875,0 2.066406,-0.242188 2.640625,-0.734375 0.570312,-0.5 0.859375,-1.191406 0.859375,-2.078125 0,-0.507812 -0.09375,-0.941406 -0.28125,-1.296875 -0.1875,-0.363281 -0.5,-0.671875 -0.9375,-0.921875 -0.4375,-0.257812 -1.03125,-0.484375 -1.78125,-0.671875 l -1.84375,-0.4375 C 4.148438,-7.910156 3.144531,-8.4375 2.5,-9.15625 1.851562,-9.875 1.53125,-10.785156 1.53125,-11.890625 c 0,-0.78125 0.195312,-1.476563 0.59375,-2.09375 0.40625,-0.613281 0.992188,-1.09375 1.765625,-1.4375 0.769531,-0.34375 1.691406,-0.515625 2.765625,-0.515625 1.1875,0 2.1875,0.167969 3,0.5 0.8125,0.335938 1.460938,0.835938 1.953125,1.5 l -0.90625,1.21875 H 10.4375 C 9.976562,-13.269531 9.441406,-13.671875 8.828125,-13.921875 8.210938,-14.179688 7.488281,-14.3125 6.65625,-14.3125 c -1.085938,0 -1.90625,0.214844 -2.46875,0.640625 -0.554688,0.417969 -0.828125,0.996094 -0.828125,1.734375 0,0.710938 0.203125,1.277344 0.609375,1.703125 0.414062,0.417969 1.101562,0.742187 2.0625,0.96875 L 7.921875,-8.8125 c 1.519531,0.355469 2.617187,0.902344 3.296875,1.640625 0.6875,0.742187 1.03125,1.6875 1.03125,2.84375 0,0.886719 -0.199219,1.671875 -0.59375,2.359375 -0.398438,0.679688 -1,1.214844 -1.8125,1.609375 C 9.039062,0.0234375 8.046875,0.21875 6.859375,0.21875 Z m 0,0"
           id="path187" />
      </g>
    </g>
  </g>
  <g
     fill="#ffffff"
     fill-opacity="1"
     id="g201"
     transform="translate(-11.757814,-47.371094)">
    <g
       transform="translate(36.104641,182.19998)"
       id="g199">
      <g
         id="g197">
        <path
           d="m 12.25,-15.703125 v 1.5625 H 7.34375 V 0 H 5.5 V -14.140625 H 0.578125 v -1.5625 z m 0,0"
           id="path195" />
      </g>
    </g>
  </g>
  <g
     fill="#ffffff"
     fill-opacity="1"
     id="g209"
     transform="translate(-11.757814,-47.371094)">
    <g
       transform="translate(48.928535,182.19998)"
       id="g207">
      <g
         id="g205">
        <path
           d="m 7.453125,-15.703125 c 1.59375,0 2.957031,0.289063 4.09375,0.859375 1.144531,0.5625 2.023437,1.429688 2.640625,2.59375 0.625,1.167969 0.9375,2.632812 0.9375,4.390625 0,1.773437 -0.3125,3.242187 -0.9375,4.40625 -0.617188,1.167969 -1.496094,2.039063 -2.640625,2.609375 C 10.410156,-0.28125 9.046875,0 7.453125,0 H 2.375 V -15.703125 Z M 7.265625,-1.5625 c 1.3125,0 2.394531,-0.203125 3.25,-0.609375 0.863281,-0.414063 1.519531,-1.082031 1.96875,-2 0.445313,-0.925781 0.671875,-2.15625 0.671875,-3.6875 0,-1.53125 -0.226562,-2.753906 -0.671875,-3.671875 -0.449219,-0.914062 -1.105469,-1.578125 -1.96875,-1.984375 -0.855469,-0.414063 -1.9375,-0.625 -3.25,-0.625 H 4.21875 V -1.5625 Z m 0,0"
           id="path203" />
      </g>
    </g>
  </g>
  <g
     fill="#ffffff"
     fill-opacity="1"
     id="g217"
     transform="translate(-11.757814,-47.371094)">
    <g
       transform="translate(311.66793,182.19998)"
       id="g215">
      <g
         id="g213">
        <path
           d="m 0.953125,-0.71875 c 0,-0.863281 0.09375,-1.5625 0.28125,-2.09375 0.1875,-0.53125 0.507813,-1.023438 0.96875,-1.484375 0.457031,-0.457031 1.1875,-1.050781 2.1875,-1.78125 L 6.125,-7.34375 C 6.757812,-7.800781 7.273438,-8.226562 7.671875,-8.625 8.078125,-9.019531 8.394531,-9.445312 8.625,-9.90625 c 0.238281,-0.46875 0.359375,-0.988281 0.359375,-1.5625 0,-0.925781 -0.25,-1.625 -0.75,-2.09375 -0.492187,-0.476562 -1.261719,-0.71875 -2.3125,-0.71875 -0.835937,0 -1.574219,0.199219 -2.21875,0.59375 -0.648437,0.386719 -1.164063,0.933594 -1.546875,1.640625 l -0.25,0.03125 -1.09375,-1.15625 c 0.519531,-0.851563 1.210938,-1.523437 2.078125,-2.015625 0.863281,-0.5 1.875,-0.75 3.03125,-0.75 1.113281,0 2.039063,0.195312 2.78125,0.578125 0.738281,0.375 1.28125,0.902344 1.625,1.578125 0.351563,0.667969 0.53125,1.4375 0.53125,2.3125 0,0.710938 -0.148437,1.371094 -0.4375,1.984375 -0.292969,0.605469 -0.710937,1.179687 -1.25,1.71875 -0.53125,0.53125 -1.203125,1.09375 -2.015625,1.6875 l -1.75,1.28125 C 4.75,-4.316406 4.242188,-3.910156 3.890625,-3.578125 3.546875,-3.242188 3.289062,-2.914062 3.125,-2.59375 2.96875,-2.269531 2.890625,-1.914062 2.890625,-1.53125 h 7.96875 V 0 h -9.90625 z m 0,0"
           id="path211" />
      </g>
    </g>
  </g>
  <g
     fill="#ffffff"
     fill-opacity="1"
     id="g225"
     transform="translate(-11.757814,-47.371094)">
    <g
       transform="translate(323.74001,182.19998)"
       id="g223">
      <g
         id="g221">
        <path
           d="M 7.71875,0.21875 C 6.570312,0.21875 5.539062,-0.0546875 4.625,-0.609375 3.707031,-1.160156 2.972656,-2.039062 2.421875,-3.25 c -0.542969,-1.207031 -0.8125,-2.742188 -0.8125,-4.609375 0,-1.851563 0.269531,-3.382813 0.8125,-4.59375 0.550781,-1.207031 1.285156,-2.085937 2.203125,-2.640625 0.914062,-0.5625 1.945312,-0.84375 3.09375,-0.84375 1.15625,0 2.191406,0.28125 3.109375,0.84375 0.914063,0.554688 1.644531,1.433594 2.1875,2.640625 0.539063,1.210937 0.8125,2.742187 0.8125,4.59375 0,1.867187 -0.273437,3.402344 -0.8125,4.609375 -0.542969,1.210938 -1.273437,2.089844 -2.1875,2.640625 C 9.910156,-0.0546875 8.875,0.21875 7.71875,0.21875 Z m 0,-1.703125 c 1.375,0 2.410156,-0.488281 3.109375,-1.46875 0.707031,-0.988281 1.0625,-2.625 1.0625,-4.90625 0,-2.269531 -0.355469,-3.894531 -1.0625,-4.875 -0.699219,-0.988281 -1.734375,-1.484375 -3.109375,-1.484375 -0.898438,0 -1.65625,0.210938 -2.28125,0.625 -0.617188,0.40625 -1.085938,1.085938 -1.40625,2.03125 -0.324219,0.9375 -0.484375,2.171875 -0.484375,3.703125 0,1.542969 0.160156,2.78125 0.484375,3.71875 0.320312,0.9375 0.789062,1.617187 1.40625,2.03125 0.625,0.417969 1.382812,0.625 2.28125,0.625 z m 0,0"
           id="path219" />
      </g>
    </g>
  </g>
  <g
     fill="#ffffff"
     fill-opacity="1"
     id="g233"
     transform="translate(-11.757814,-47.371094)">
    <g
       transform="translate(339.18453,182.19998)"
       id="g231">
      <g
         id="g229">
        <path
           d="m 0.953125,-0.71875 c 0,-0.863281 0.09375,-1.5625 0.28125,-2.09375 0.1875,-0.53125 0.507813,-1.023438 0.96875,-1.484375 0.457031,-0.457031 1.1875,-1.050781 2.1875,-1.78125 L 6.125,-7.34375 C 6.757812,-7.800781 7.273438,-8.226562 7.671875,-8.625 8.078125,-9.019531 8.394531,-9.445312 8.625,-9.90625 c 0.238281,-0.46875 0.359375,-0.988281 0.359375,-1.5625 0,-0.925781 -0.25,-1.625 -0.75,-2.09375 -0.492187,-0.476562 -1.261719,-0.71875 -2.3125,-0.71875 -0.835937,0 -1.574219,0.199219 -2.21875,0.59375 -0.648437,0.386719 -1.164063,0.933594 -1.546875,1.640625 l -0.25,0.03125 -1.09375,-1.15625 c 0.519531,-0.851563 1.210938,-1.523437 2.078125,-2.015625 0.863281,-0.5 1.875,-0.75 3.03125,-0.75 1.113281,0 2.039063,0.195312 2.78125,0.578125 0.738281,0.375 1.28125,0.902344 1.625,1.578125 0.351563,0.667969 0.53125,1.4375 0.53125,2.3125 0,0.710938 -0.148437,1.371094 -0.4375,1.984375 -0.292969,0.605469 -0.710937,1.179687 -1.25,1.71875 -0.53125,0.53125 -1.203125,1.09375 -2.015625,1.6875 l -1.75,1.28125 C 4.75,-4.316406 4.242188,-3.910156 3.890625,-3.578125 3.546875,-3.242188 3.289062,-2.914062 3.125,-2.59375 2.96875,-2.269531 2.890625,-1.914062 2.890625,-1.53125 h 7.96875 V 0 h -9.90625 z m 0,0"
           id="path227" />
      </g>
    </g>
  </g>
  <g
     fill="#ffffff"
     fill-opacity="1"
     id="g241"
     transform="translate(-11.757814,-47.371094)">
    <g
       transform="translate(351.2566,182.19998)"
       id="g239">
      <g
         id="g237">
        <path
           d="m 0.953125,-0.71875 c 0,-0.863281 0.09375,-1.5625 0.28125,-2.09375 0.1875,-0.53125 0.507813,-1.023438 0.96875,-1.484375 0.457031,-0.457031 1.1875,-1.050781 2.1875,-1.78125 L 6.125,-7.34375 C 6.757812,-7.800781 7.273438,-8.226562 7.671875,-8.625 8.078125,-9.019531 8.394531,-9.445312 8.625,-9.90625 c 0.238281,-0.46875 0.359375,-0.988281 0.359375,-1.5625 0,-0.925781 -0.25,-1.625 -0.75,-2.09375 -0.492187,-0.476562 -1.261719,-0.71875 -2.3125,-0.71875 -0.835937,0 -1.574219,0.199219 -2.21875,0.59375 -0.648437,0.386719 -1.164063,0.933594 -1.546875,1.640625 l -0.25,0.03125 -1.09375,-1.15625 c 0.519531,-0.851563 1.210938,-1.523437 2.078125,-2.015625 0.863281,-0.5 1.875,-0.75 3.03125,-0.75 1.113281,0 2.039063,0.195312 2.78125,0.578125 0.738281,0.375 1.28125,0.902344 1.625,1.578125 0.351563,0.667969 0.53125,1.4375 0.53125,2.3125 0,0.710938 -0.148437,1.371094 -0.4375,1.984375 -0.292969,0.605469 -0.710937,1.179687 -1.25,1.71875 -0.53125,0.53125 -1.203125,1.09375 -2.015625,1.6875 l -1.75,1.28125 C 4.75,-4.316406 4.242188,-3.910156 3.890625,-3.578125 3.546875,-3.242188 3.289062,-2.914062 3.125,-2.59375 2.96875,-2.269531 2.890625,-1.914062 2.890625,-1.53125 h 7.96875 V 0 h -9.90625 z m 0,0"
           id="path235" />
      </g>
    </g>
  </g>
</svg>
