<?xml version="1.0" encoding="UTF-8" standalone="no"?>
<svg
   width="273.41959"
   zoomAndPan="magnify"
   viewBox="0 0 205.06469 96.731126"
   height="128.97484"
   preserveAspectRatio="xMidYMid"
   version="1.0"
   id="svg142"
   sodipodi:docname="15 (1).svg"
   inkscape:export-filename="..\Users\Alex\Desktop\FH\5. Semester\Teamprojekt\Teamprojekt---Hotel\doc\logos\final_logo_2.svg"
   inkscape:export-xdpi="96"
   inkscape:export-ydpi="96"
   xmlns:inkscape="http://www.inkscape.org/namespaces/inkscape"
   xmlns:sodipodi="http://sodipodi.sourceforge.net/DTD/sodipodi-0.dtd"
   xmlns="http://www.w3.org/2000/svg"
   xmlns:svg="http://www.w3.org/2000/svg">
  <sodipodi:namedview
     id="namedview144"
     pagecolor="#ffffff"
     bordercolor="#000000"
     borderopacity="0.25"
     inkscape:showpageshadow="2"
     inkscape:pageopacity="0.0"
     inkscape:pagecheckerboard="0"
     inkscape:deskcolor="#d1d1d1"
     showgrid="false" />
  <defs
     id="defs10">
    <clipPath
       id="972f23a932">
      <path
         d="m 85.625,178.23828 h 43.89453 v 60.9375 H 85.625 Z m 0,0"
         clip-rule="nonzero"
         id="path4" />
    </clipPath>
    <clipPath
       id="f90d40c8b7">
      <path
         d="m 85.625,189 h 43.89453 v 50.17578 H 85.625 Z m 0,0"
         clip-rule="nonzero"
         id="path7" />
    </clipPath>
  </defs>
  <g
     clip-path="url(#972f23a932)"
     id="g20"
     style="stroke:#ffffff;stroke-width:0.75;stroke-dasharray:none;stroke-opacity:1"
     transform="translate(-85.625006,-142.44464)">
    <path
       fill="#ff3333"
       d="m 172.59766,239.14844 c -7.77344,-12.25 -15.54688,-24.4961 -23.32032,-36.7461 -4.59765,-7.24218 -9.19531,-14.48437 -13.78906,-21.72265 0.4375,0.25 0.875,0.5039 1.3125,0.75781 -4.16797,0 -8.33984,0 -12.50781,0 0.4375,-0.25391 0.875,-0.50391 1.3125,-0.75781 -7.77344,12.25 -15.54688,24.49609 -23.32031,36.74609 -4.59766,7.24219 -9.19141,14.48047 -13.789066,21.72266 -1.050782,1.66015 -3.683594,0.125 -2.625,-1.54297 7.773437,-12.25 15.550786,-24.4961 23.320316,-36.7461 4.10547,-6.46484 8.20703,-12.92578 12.30859,-19.39062 0.71875,-1.13281 1.49609,-3.08984 3.02344,-3.08984 3.94531,-0.004 7.89062,-0.004 11.83593,-0.004 1.69141,0 2.29297,1.60937 3.09766,2.87891 1.64063,2.58203 3.28125,5.16406 4.92188,7.75 5.09765,8.03515 10.19921,16.07031 15.29687,24.10546 5.18359,8.16407 10.36719,16.33204 15.54688,24.4961 1.0625,1.66797 -1.57032,3.20312 -2.625,1.54297"
       fill-opacity="1"
       fill-rule="nonzero"
       id="path18"
       style="stroke:#ffffff;stroke-width:0.75;stroke-dasharray:none;stroke-opacity:1" />
  </g>
  <path
     fill="#ff3333"
     d="m 37.386714,31.254577 c 0,-0.20313 -0.0234,-0.40625 -0.043,-0.60938 0,-0.0117 -0.004,-0.0273 -0.004,-0.043 -0.0156,-0.11718 -0.0352,-0.23046 -0.0547,-0.34375 -0.0625,-0.35937 -0.14453,-0.71093 -0.23438,-1.05859 -0.48437,-1.87891 -1.28515,-3.50781 -2.58594,-5.12109 -5.27343,-6.54688 -14.68359,-7.78125 -22.503902,-7.8125 -1.9609385,-0.008 -1.9609385,-3.06641 0,-3.0586 8.656252,0.0352 18.773442,1.59375 24.652342,8.70703 2.08594,2.52344 3.80078,5.97266 3.8125,9.33985 0.008,1.97265 -3.03515,1.97265 -3.03906,0"
     fill-opacity="1"
     fill-rule="nonzero"
     id="path22"
     style="stroke:#ffffff;stroke-width:0.75;stroke-dasharray:none;stroke-opacity:1" />
  <path
     fill="#ff3333"
     d="m 33.234374,12.289727 c -1.17188,-4.9531196 -5.82813,-8.4726496 -10.92188,-8.8515596 -1.94531,-0.14453 -1.95703,-3.20312003 0,-3.05859003 6.33594,0.46875 12.32422,4.64453003 13.85547,11.09374963 0.45312,1.91797 -2.47656,2.73437 -2.93359,0.8164"
     fill-opacity="1"
     fill-rule="nonzero"
     id="path24"
     style="stroke:#ffffff;stroke-width:0.75;stroke-dasharray:none;stroke-opacity:1" />
  <g
     clip-path="url(#f90d40c8b7)"
     id="g28"
     style="stroke:#ffffff;stroke-width:0.75;stroke-dasharray:none;stroke-opacity:1"
     transform="translate(-85.625006,-142.44464)">
    <path
       fill="#ff3333"
       d="m 85.871094,237.60547 c 8.164062,-12.86719 16.332036,-25.73438 24.499996,-38.60156 1.45704,-2.29688 2.91797,-4.59375 4.375,-6.89063 0.9375,-1.47656 2.14454,-2.07031 3.94141,-1.4375 2.89063,1.01953 5.20313,3.55469 7.33984,5.63672 1.22266,1.19531 2.76172,2.18359 4.51172,2.15625 1.3711,-0.0195 2.53906,-1.06641 3.41797,-2.01172 0.94922,-1.01953 1.64844,-2.27344 2.27734,-3.50781 0.70704,-1.39063 1.33204,-2.79297 2.85547,-3.44141 2.35938,-1.0039 4.75782,0.35156 6.56641,1.85156 1.15625,0.96094 1.87109,2.65625 2.64453,3.91016 2.01172,3.25 4.01953,6.5 6.03125,9.75 5.04297,8.15625 10.08594,16.3125 15.13281,24.46875 1.67188,2.70703 3.34375,5.41016 5.01563,8.11719 0.61719,0.99219 -0.1836,2.30078 -1.3125,2.30078 -13.06641,0 -26.13672,0 -39.20313,0 -15.30859,0 -30.61718,0 -45.925778,0 -0.285156,0 -0.570312,0 -0.855468,0 -0.574219,0 -0.980469,-0.26172 -1.21875,-0.63281 -0.367188,-0.42969 -0.492188,-1.03907 -0.09375,-1.66797"
       fill-opacity="1"
       fill-rule="nonzero"
       id="path26"
       style="stroke:#ffffff;stroke-width:0.75;stroke-dasharray:none;stroke-opacity:1" />
  </g>
  <g
     fill="#ffffff"
     fill-opacity="1"
     id="g36"
     transform="translate(-85.625006,-142.44464)">
    <g
       transform="translate(129.44912,206.24365)"
       id="g34">
      <g
         id="g32">
        <path
           d="m 1.84375,-12.046875 c 0,-4.1875 1.050781,-7.351563 3.15625,-9.5 2.113281,-2.15625 5.140625,-3.234375 9.078125,-3.234375 1.257813,0 2.347656,0.109375 3.265625,0.328125 0.925781,0.21875 1.894531,0.507813 2.90625,0.859375 1.0625,0.375 1.835938,0.5625 2.328125,0.5625 -0.105469,0.554688 -0.15625,1.496094 -0.15625,2.828125 0,0.375 0.02344,0.890625 0.07813,1.546875 0.05078,0.4375 0.07813,0.765625 0.07813,0.984375 H 20.9375 c 0.03125,-0.132813 0.04687,-0.34375 0.04687,-0.625 0,-1.707031 -0.605469,-3.046875 -1.8125,-4.015625 -1.210937,-0.96875 -2.976563,-1.453125 -5.296875,-1.453125 -2.367188,0 -4.273438,0.996094 -5.71875,2.984375 C 6.71875,-18.789062 6,-15.878906 6,-12.046875 6,-4.472656 8.691406,-0.6875 14.078125,-0.6875 c 1.226563,0 2.222656,-0.128906 2.984375,-0.390625 0.757812,-0.257813 1.507812,-0.757813 2.25,-1.5 v -6.53125 C 19.3125,-9.703125 19.050781,-10 18.53125,-10 L 16.125,-9.921875 v -1.1875 h 9.4375 v 1.1875 L 23.890625,-10 c -0.25,0 -0.445313,0.085938 -0.578125,0.25 -0.136719,0.15625 -0.203125,0.359375 -0.203125,0.609375 v 7.71875 c -0.105469,-0.03125 -0.28125,-0.046875 -0.53125,-0.046875 -0.523437,0 -1.367187,0.21875 -2.53125,0.65625 -1.199219,0.40625 -2.242187,0.710938 -3.125,0.90625 C 16.035156,0.300781 15.019531,0.40625 13.875,0.40625 10.070312,0.40625 7.113281,-0.644531 5,-2.75 2.894531,-4.863281 1.84375,-7.960938 1.84375,-12.046875 Z m 0,0"
           id="path30" />
      </g>
    </g>
  </g>
  <g
     fill="#ffffff"
     fill-opacity="1"
     id="g44"
     transform="translate(-85.625006,-142.44464)">
    <g
       transform="translate(155.82534,206.24365)"
       id="g42">
      <g
         id="g40">
        <path
           d="m 11.71875,-17.5625 c 1.0625,0 1.882812,0.304688 2.46875,0.90625 0.582031,0.59375 0.875,1.355469 0.875,2.28125 0,0.625 -0.15625,1.105469 -0.46875,1.4375 -0.3125,0.324219 -0.730469,0.484375 -1.25,0.484375 -0.375,0 -0.71875,-0.09766 -1.03125,-0.296875 -0.3125,-0.207031 -0.46875,-0.53125 -0.46875,-0.96875 0,-0.238281 0.05078,-0.550781 0.15625,-0.9375 0.113281,-0.382812 0.171875,-0.6875 0.171875,-0.90625 0,-0.207031 -0.07813,-0.398438 -0.234375,-0.578125 -0.148438,-0.175781 -0.382812,-0.265625 -0.703125,-0.265625 -0.84375,0 -1.585937,0.402344 -2.21875,1.203125 -0.625,0.804687 -1.117187,1.796875 -1.46875,2.984375 -0.355469,1.179688 -0.558594,2.3125 -0.609375,3.40625 V -1.75 c 0,0.511719 0.175781,0.765625 0.53125,0.765625 l 2.5,-0.078125 V 0 h -8.375 v -1.0625 l 1.3125,0.078125 c 0.34375,0 0.515625,-0.253906 0.515625,-0.765625 v -13.59375 c 0,-0.550781 -0.171875,-0.828125 -0.515625,-0.828125 l -1.484375,0.07813 V -17.14062 H 7.1875 c -0.054688,0.15625 -0.109375,0.421875 -0.171875,0.796875 -0.054687,0.367188 -0.078125,0.726562 -0.078125,1.078125 v 2 c 0.625,-1.53125 1.320312,-2.628906 2.09375,-3.296875 0.78125,-0.664062 1.675781,-1 2.6875,-1 z m 0,0"
           id="path38" />
      </g>
    </g>
  </g>
  <g
     fill="#ffffff"
     fill-opacity="1"
     id="g52"
     transform="translate(-85.625006,-142.44464)">
    <g
       transform="translate(171.46326,206.24365)"
       id="g50">
      <g
         id="g48">
        <path
           d="M 17.5625,-1.0625 V 0 h -5.796875 c 0.01953,-0.1875 0.05078,-0.4375 0.09375,-0.75 0.03906,-0.3125 0.0625,-0.566406 0.0625,-0.765625 L 12,-3.109375 C 11.40625,-1.929688 10.632812,-1.082031 9.6875,-0.5625 8.75,-0.0507812 7.628906,0.203125 6.328125,0.203125 c -1.71875,0 -3.023437,-0.382813 -3.90625,-1.15625 -0.875,-0.78125 -1.3125,-1.929687 -1.3125,-3.453125 0,-2.09375 0.875,-3.632812 2.625,-4.625 1.757813,-1 4.515625,-1.5 8.265625,-1.5 v -2.375 c 0,-1.28125 -0.304688,-2.191406 -0.90625,-2.734375 -0.59375,-0.539063 -1.558594,-0.8125 -2.890625,-0.8125 -2.0625,0 -3.09375,0.574219 -3.09375,1.71875 0,0.21875 0.054687,0.46875 0.171875,0.75 0.125,0.28125 0.1875,0.546875 0.1875,0.796875 0,0.460938 -0.152344,0.808594 -0.453125,1.046875 -0.292969,0.230469 -0.671875,0.34375 -1.140625,0.34375 -0.574219,0 -1.015625,-0.175781 -1.328125,-0.53125 -0.3125,-0.351563 -0.46875,-0.816406 -0.46875,-1.390625 0,-1.144531 0.597656,-2.070312 1.796875,-2.78125 1.195312,-0.707031 2.804688,-1.0625 4.828125,-1.0625 4.539063,0 6.8125,1.921875 6.8125,5.765625 V -1.75 c 0,0.511719 0.175781,0.765625 0.53125,0.765625 z M 7.546875,-1.265625 c 1.195313,0 2.21875,-0.492187 3.0625,-1.484375 0.84375,-1 1.304687,-2.285156 1.390625,-3.859375 V -9.4375 c -2.554688,0 -4.390625,0.375 -5.515625,1.125 -1.117187,0.75 -1.671875,1.945312 -1.671875,3.578125 0,1.148437 0.238281,2.011719 0.71875,2.59375 0.476562,0.585937 1.148438,0.875 2.015625,0.875 z m 0,0"
           id="path46" />
      </g>
    </g>
  </g>
  <g
     fill="#ffffff"
     fill-opacity="1"
     id="g60"
     transform="translate(-85.625006,-142.44464)">
    <g
       transform="translate(189.8368,206.24365)"
       id="g58">
      <g
         id="g56">
        <path
           d="M 20.625,-1.0625 V 0 h -7.96875 v -1.0625 l 1.875,0.078125 C 14.882812,-1.066406 15.0625,-1.320312 15.0625,-1.75 v -9.28125 c 0,-1.300781 -0.0625,-2.304688 -0.1875,-3.015625 -0.117188,-0.707031 -0.367188,-1.25 -0.75,-1.625 C 13.75,-16.054688 13.148438,-16.25 12.328125,-16.25 c -1.554687,0 -2.8125,0.664062 -3.78125,1.984375 -0.960937,1.3125 -1.480469,3.089844 -1.5625,5.328125 V -1.75 c 0,0.511719 0.175781,0.765625 0.53125,0.765625 l 1.875,-0.078125 V 0 H 1.421875 V -1.0625 L 2.9375,-0.984375 C 3.289062,-1.066406 3.46875,-1.320312 3.46875,-1.75 v -13.59375 c 0,-0.46875 -0.179688,-0.742188 -0.53125,-0.828125 l -1.515625,0.07813 V -17.14062 H 7.1875 c -0.136719,0.40625 -0.203125,0.882813 -0.203125,1.421875 v 2.25 c 0.570313,-1.28125 1.390625,-2.28125 2.453125,-3 1.0625,-0.726562 2.285156,-1.09375 3.671875,-1.09375 1.925781,0 3.316406,0.460938 4.171875,1.375 0.863281,0.90625 1.296875,2.382812 1.296875,4.421875 V -1.75 c 0,0.511719 0.175781,0.765625 0.53125,0.765625 z m 0,0"
           id="path54" />
      </g>
    </g>
  </g>
  <g
     fill="#ffffff"
     fill-opacity="1"
     id="g68"
     transform="translate(-85.625006,-142.44464)">
    <g
       transform="translate(211.27258,206.24365)"
       id="g66">
      <g
         id="g64">
        <path
           d="m 1.421875,-8.53125 c 0,-2.96875 0.644531,-5.210938 1.9375,-6.734375 1.300781,-1.53125 3.226563,-2.296875 5.78125,-2.296875 1.257813,0 2.289063,0.320312 3.09375,0.953125 0.800781,0.625 1.335937,1.429687 1.609375,2.40625 v -13.84375 c 0,-0.539063 -0.179688,-0.8125 -0.53125,-0.8125 l -1.875,0.07813 v -1.015625 h 5.953125 V -1.75 c 0,0.511719 0.175781,0.765625 0.53125,0.765625 L 19.4375,-1.0625 V 0 h -5.875 c 0.05078,-0.21875 0.07813,-0.4375 0.07813,-0.65625 v -0.890625 c 0,-0.351563 0.0078,-0.625 0.03125,-0.8125 0.03125,-0.195313 0.04687,-0.320313 0.04687,-0.375 -0.324219,1.011719 -0.851562,1.789063 -1.578125,2.328125 -0.71875,0.539062 -1.703125,0.8125 -2.953125,0.8125 -2.78125,0 -4.773438,-0.722656 -5.96875,-2.171875 C 2.019531,-3.222656 1.421875,-5.476562 1.421875,-8.53125 Z m 3.765625,0 c 0,1.992188 0.113281,3.542969 0.34375,4.65625 0.226562,1.117188 0.628906,1.929688 1.203125,2.4375 0.570313,0.5 1.390625,0.75 2.453125,0.75 1.65625,0 2.832031,-0.539062 3.53125,-1.625 0.695312,-1.09375 1.046875,-2.828125 1.046875,-5.203125 v -1.71875 c 0,-2.28125 -0.386719,-4.050781 -1.15625,-5.3125 -0.761719,-1.269531 -1.917969,-1.90625 -3.46875,-1.90625 -1.46875,0 -2.496094,0.683594 -3.078125,2.046875 -0.585938,1.355469 -0.875,3.3125 -0.875,5.875 z m 0,0"
           id="path62" />
      </g>
    </g>
  </g>
  <g
     fill="#ffffff"
     fill-opacity="1"
     id="g76"
     transform="translate(-85.625006,-142.44464)">
    <g
       transform="translate(231.5243,206.24365)"
       id="g74">
      <g
         id="g72">
        <path
           d="M 1.421875,-1.0625 2.9375,-0.984375 C 3.289062,-1.066406 3.46875,-1.320312 3.46875,-1.75 v -26.296875 c 0,-0.46875 -0.164062,-0.753906 -0.484375,-0.859375 l -1.515625,0.07813 v -1.01563 H 6.984375 V -1.75 c 0,0.511719 0.175781,0.765625 0.53125,0.765625 L 8.984375,-1.0625 V 0 h -7.5625 z m 0,0"
           id="path70" />
      </g>
    </g>
  </g>
  <g
     fill="#ffffff"
     fill-opacity="1"
     id="g84"
     transform="translate(-85.625006,-142.44464)">
    <g
       transform="translate(241.93597,206.24365)"
       id="g82">
      <g
         id="g80">
        <path
           d="m 4.9375,-26.25 c 0.65625,0 1.191406,0.179688 1.609375,0.53125 0.425781,0.355469 0.640625,0.820312 0.640625,1.390625 0,0.625 -0.210938,1.109375 -0.625,1.453125 -0.40625,0.335938 -0.949219,0.5 -1.625,0.5 -0.65625,0 -1.1875,-0.164062 -1.59375,-0.5 -0.40625,-0.34375 -0.609375,-0.828125 -0.609375,-1.453125 0,-0.570313 0.203125,-1.035156 0.609375,-1.390625 C 3.75,-26.070312 4.28125,-26.25 4.9375,-26.25 Z m 2.046875,24.5 c 0,0.511719 0.175781,0.765625 0.53125,0.765625 L 8.984375,-1.0625 V 0 h -7.5625 V -1.0625 L 2.9375,-0.984375 c 0.351562,0 0.53125,-0.253906 0.53125,-0.765625 v -13.59375 c 0,-0.46875 -0.164062,-0.742188 -0.484375,-0.828125 l -1.515625,0.07813 v -1.046875 h 5.515625 z m 0,0"
           id="path78" />
      </g>
    </g>
  </g>
  <g
     fill="#ffffff"
     fill-opacity="1"
     id="g92"
     transform="translate(-85.625006,-142.44464)">
    <g
       transform="translate(252.34764,206.24365)"
       id="g90">
      <g
         id="g88">
        <path
           d="M 20.625,-1.0625 V 0 h -7.96875 v -1.0625 l 1.875,0.078125 C 14.882812,-1.066406 15.0625,-1.320312 15.0625,-1.75 v -9.28125 c 0,-1.300781 -0.0625,-2.304688 -0.1875,-3.015625 -0.117188,-0.707031 -0.367188,-1.25 -0.75,-1.625 C 13.75,-16.054688 13.148438,-16.25 12.328125,-16.25 c -1.554687,0 -2.8125,0.664062 -3.78125,1.984375 -0.960937,1.3125 -1.480469,3.089844 -1.5625,5.328125 V -1.75 c 0,0.511719 0.175781,0.765625 0.53125,0.765625 l 1.875,-0.078125 V 0 H 1.421875 V -1.0625 L 2.9375,-0.984375 C 3.289062,-1.066406 3.46875,-1.320312 3.46875,-1.75 v -13.59375 c 0,-0.46875 -0.179688,-0.742188 -0.53125,-0.828125 l -1.515625,0.07813 V -17.14062 H 7.1875 c -0.136719,0.40625 -0.203125,0.882813 -0.203125,1.421875 v 2.25 c 0.570313,-1.28125 1.390625,-2.28125 2.453125,-3 1.0625,-0.726562 2.285156,-1.09375 3.671875,-1.09375 1.925781,0 3.316406,0.460938 4.171875,1.375 0.863281,0.90625 1.296875,2.382812 1.296875,4.421875 V -1.75 c 0,0.511719 0.175781,0.765625 0.53125,0.765625 z m 0,0"
           id="path86" />
      </g>
    </g>
  </g>
  <g
     fill="#ffffff"
     fill-opacity="1"
     id="g100"
     transform="translate(-85.625006,-142.44464)">
    <g
       transform="translate(273.78342,206.24365)"
       id="g98">
      <g
         id="g96">
        <path
           d="m 9.640625,-17.5625 c 2.144531,0 3.878906,0.6875 5.203125,2.0625 1.320312,1.375 2.007812,3.261719 2.0625,5.65625 v 1.1875 H 5.140625 c 0,2.480469 0.425781,4.382812 1.28125,5.703125 0.863281,1.3125 2.148437,1.984375 3.859375,2.015625 1.363281,0 2.515625,-0.335938 3.453125,-1.015625 0.9375,-0.6875 1.625,-1.53125 2.0625,-2.53125 l 0.9375,0.6875 c -0.542969,1.304687 -1.460937,2.328125 -2.75,3.078125 -1.292969,0.75 -2.714844,1.125 -4.265625,1.125 -5.53125,0 -8.296875,-2.976562 -8.296875,-8.9375 0,-2.96875 0.691406,-5.210938 2.078125,-6.734375 1.394531,-1.53125 3.441406,-2.296875 6.140625,-2.296875 z m 0,1.109375 c -1.53125,0 -2.65625,0.625 -3.375,1.875 -0.71875,1.25 -1.078125,2.886719 -1.078125,4.90625 h 7.421875 c 0.28125,0 0.488281,-0.09375 0.625,-0.28125 0.132813,-0.195313 0.203125,-0.554687 0.203125,-1.078125 0,-1.84375 -0.296875,-3.207031 -0.890625,-4.09375 -0.585937,-0.882812 -1.554687,-1.328125 -2.90625,-1.328125 z m 0,0"
           id="path94" />
      </g>
    </g>
  </g>
  <g
     fill="#ffffff"
     fill-opacity="1"
     id="g108"
     transform="translate(-85.625006,-142.44464)">
    <g
       transform="translate(129.44912,234.80365)"
       id="g106">
      <g
         id="g104">
        <path
           d="m 1.421875,-0.828125 1.09375,0.0625 c 0.363281,0 0.546875,-0.207031 0.546875,-0.625 V -15.53125 c 0,-0.40625 -0.183594,-0.601562 -0.546875,-0.59375 l -1.09375,0.0625 v -0.84375 H 7.65625 v 0.84375 L 6.265625,-16.125 h -0.0625 c -0.167969,0 -0.296875,0.05859 -0.390625,0.171875 -0.085938,0.117187 -0.125,0.257813 -0.125,0.421875 V -9.125 h 8.328125 v -6.40625 c 0,-0.40625 -0.179687,-0.601562 -0.53125,-0.59375 l -1.390625,0.0625 v -0.84375 h 6.203125 v 0.84375 L 17.1875,-16.125 h -0.04687 c -0.15625,0 -0.277344,0.05859 -0.359375,0.171875 -0.08594,0.117187 -0.125,0.257813 -0.125,0.421875 v 14.140625 c 0,0.417969 0.175781,0.625 0.53125,0.625 l 1.109375,-0.0625 V 0 h -6.20313 v -0.828125 l 1.390625,0.0625 c 0.351563,0 0.53125,-0.207031 0.53125,-0.625 v -6.9375 H 5.6875 v 6.9375 c 0,0.417969 0.191406,0.625 0.578125,0.625 l 1.390625,-0.0625 V 0 H 1.421875 Z m 0,0"
           id="path102" />
      </g>
    </g>
  </g>
  <g
     fill="#ffffff"
     fill-opacity="1"
     id="g116"
     transform="translate(-85.625006,-142.44464)">
    <g
       transform="translate(149.16686,234.80365)"
       id="g114">
      <g
         id="g112">
        <path
           d="m 0.984375,-5.984375 c 0,-1.914063 0.476563,-3.425781 1.4375,-4.53125 0.96875,-1.113281 2.390625,-1.671875 4.265625,-1.671875 1.863281,0 3.273438,0.558594 4.234375,1.671875 0.96875,1.105469 1.453125,2.617187 1.453125,4.53125 0,1.96875 -0.484375,3.507813 -1.453125,4.609375 -0.960937,1.105469 -2.371094,1.65625 -4.234375,1.65625 -1.875,0 -3.296875,-0.550781 -4.265625,-1.65625 -0.960937,-1.101562 -1.4375,-2.640625 -1.4375,-4.609375 z m 2.578125,0.0625 c 0,1.90625 0.238281,3.292969 0.71875,4.15625 0.488281,0.855469 1.289062,1.28125 2.40625,1.28125 1.113281,0 1.910156,-0.425781 2.390625,-1.28125 0.476563,-0.863281 0.71875,-2.25 0.71875,-4.15625 0,-1.925781 -0.242187,-3.320313 -0.71875,-4.1875 -0.480469,-0.875 -1.277344,-1.3125 -2.390625,-1.3125 -1.117188,0 -1.917969,0.4375 -2.40625,1.3125 -0.480469,0.867187 -0.71875,2.261719 -0.71875,4.1875 z m 0,0"
           id="path110" />
      </g>
    </g>
  </g>
  <g
     fill="#ffffff"
     fill-opacity="1"
     id="g124"
     transform="translate(-85.625006,-142.44464)">
    <g
       transform="translate(162.53866,234.80365)"
       id="g122">
      <g
         id="g120">
        <path
           d="M 4.84375,-11.890625 H 7.953125 V -11.1875 H 4.84375 V -2.5 c 0,0.71875 0.082031,1.210938 0.25,1.46875 0.175781,0.25 0.476562,0.375 0.90625,0.375 0.289062,0 0.585938,-0.101562 0.890625,-0.3125 0.300781,-0.21875 0.5,-0.488281 0.59375,-0.8125 l 0.59375,0.359375 c -0.386719,1.0625 -1.386719,1.59375 -3,1.59375 -0.96875,0 -1.65625,-0.2226562 -2.0625,-0.671875 C 2.609375,-0.957031 2.40625,-1.695312 2.40625,-2.71875 V -11.1875 H 0.703125 v -0.703125 c 0.757813,0 1.335937,-0.07031 1.734375,-0.21875 0.394531,-0.144531 0.707031,-0.414063 0.9375,-0.8125 0.238281,-0.394531 0.460938,-1.015625 0.671875,-1.859375 H 4.84375 Z m 0,0"
           id="path118" />
      </g>
    </g>
  </g>
  <g
     fill="#ffffff"
     fill-opacity="1"
     id="g132"
     transform="translate(-85.625006,-142.44464)">
    <g
       transform="translate(171.40598,234.80365)"
       id="g130">
      <g
         id="g128">
        <path
           d="m 6.6875,-12.1875 c 1.488281,0 2.691406,0.480469 3.609375,1.4375 0.914063,0.960938 1.394531,2.265625 1.4375,3.921875 V -6 H 3.5625 c 0,1.71875 0.296875,3.039062 0.890625,3.953125 0.601563,0.90625 1.5,1.371094 2.6875,1.390625 0.945313,0 1.742187,-0.234375 2.390625,-0.703125 0.65625,-0.46875 1.132812,-1.050781 1.4375,-1.75 l 0.640625,0.46875 c -0.375,0.90625 -1.011719,1.621094 -1.90625,2.140625 -0.898437,0.5195312 -1.886719,0.78125 -2.96875,0.78125 -3.835937,0 -5.75,-2.066406 -5.75,-6.203125 0,-2.0625 0.476563,-3.617187 1.4375,-4.671875 0.96875,-1.0625 2.390625,-1.59375 4.265625,-1.59375 z m 0,0.765625 c -1.0625,0 -1.84375,0.4375 -2.34375,1.3125 -0.5,0.867187 -0.75,1.996094 -0.75,3.390625 H 8.75 c 0.1875,0 0.328125,-0.0625 0.421875,-0.1875 C 9.265625,-7.039062 9.3125,-7.289062 9.3125,-7.65625 9.3125,-8.9375 9.109375,-9.882812 8.703125,-10.5 8.304688,-11.113281 7.632812,-11.421875 6.6875,-11.421875 Z m 0,0"
           id="path126" />
      </g>
    </g>
  </g>
  <g
     fill="#ffffff"
     fill-opacity="1"
     id="g140"
     transform="translate(-85.625006,-142.44464)">
    <g
       transform="translate(184.12619,234.80365)"
       id="g138">
      <g
         id="g136">
        <path
           d="m 0.984375,-0.734375 1.0625,0.046875 C 2.285156,-0.738281 2.40625,-0.914062 2.40625,-1.21875 v -18.25 c 0,-0.3125 -0.117188,-0.507812 -0.34375,-0.59375 L 1.015625,-20 v -0.703125 H 4.84375 V -1.21875 c 0,0.355469 0.125,0.53125 0.375,0.53125 L 6.234375,-0.734375 V 0 h -5.25 z m 0,0"
           id="path134" />
      </g>
    </g>
  </g>
</svg>
