<?xml version="1.0" encoding="UTF-8" standalone="no"?>
<svg
   width="140.75"
   zoomAndPan="magnify"
   viewBox="0 0 105.5625 121.49035"
   height="161.98714"
   preserveAspectRatio="xMidYMid"
   version="1.0"
   id="svg3615"
   sodipodi:docname="16 (1).svg"
   inkscape:export-filename="..\Users\Alex\Desktop\FH\5. Semester\Teamprojekt\Teamprojekt---Hotel\doc\logos\final_logo_3.svg"
   inkscape:export-xdpi="96"
   inkscape:export-ydpi="96"
   xmlns:inkscape="http://www.inkscape.org/namespaces/inkscape"
   xmlns:sodipodi="http://sodipodi.sourceforge.net/DTD/sodipodi-0.dtd"
   xmlns="http://www.w3.org/2000/svg"
   xmlns:svg="http://www.w3.org/2000/svg">
  <sodipodi:namedview
     id="namedview3617"
     pagecolor="#ffffff"
     bordercolor="#000000"
     borderopacity="0.25"
     inkscape:showpageshadow="2"
     inkscape:pageopacity="0.0"
     inkscape:pagecheckerboard="0"
     inkscape:deskcolor="#d1d1d1"
     showgrid="false" />
  <defs
     id="defs3595">
    <clipPath
       id="b8d0b7a2c1">
      <path
         d="m 134.62109,176.44141 h 105.5625 v 72.3125 h -105.5625 z m 0,0"
         clip-rule="nonzero"
         id="path3589" />
    </clipPath>
    <clipPath
       id="34cc66440f">
      <path
         d="m 135.33594,189 h 104.84765 v 59.75391 H 135.33594 Z m 0,0"
         clip-rule="nonzero"
         id="path3592" />
    </clipPath>
  </defs>
  <g
     clip-path="url(#b8d0b7a2c1)"
     id="g3603"
     style="stroke:#ffffff;stroke-width:0.75;stroke-dasharray:none;stroke-opacity:1"
     transform="translate(-134.62109,-127.26356)">
    <path
       fill="#ff3333"
       d="m 137.99609,247.86719 c 9.13282,-14.36328 18.26953,-28.72657 27.40235,-43.09375 5.39843,-8.48828 10.80078,-16.98047 16.19922,-25.47266 -0.51563,0.29688 -1.02735,0.59375 -1.54297,0.88672 4.89843,0.004 9.79687,0.004 14.69531,0.004 -0.51563,-0.29688 -1.02734,-0.59375 -1.54297,-0.88672 9.13281,14.36328 18.26563,28.72656 27.40234,43.08984 5.39844,8.49219 10.79688,16.98047 16.19922,25.47266 1.23438,1.94531 4.32813,0.14453 3.08594,-1.8125 -9.13672,-14.36328 -18.26953,-28.72657 -27.40234,-43.08985 -4.82032,-7.57812 -9.64063,-15.15625 -14.46094,-22.73828 -0.84375,-1.32812 -1.75781,-3.62109 -3.55469,-3.62109 -4.63281,-0.004 -9.26953,-0.004 -13.90234,-0.004 -1.98828,0 -2.69531,1.88281 -3.64063,3.375 -1.92578,3.02735 -3.85547,6.0586 -5.78125,9.08594 -5.99218,9.42187 -11.98437,18.84375 -17.97656,28.26953 -6.08594,9.57422 -12.17578,19.14844 -18.26562,28.72266 -1.2461,1.95703 1.85156,3.75781 3.08593,1.8125"
       fill-opacity="1"
       fill-rule="nonzero"
       id="path3601"
       style="stroke:#ffffff;stroke-width:0.75;stroke-dasharray:none;stroke-opacity:1" />
  </g>
  <path
     fill="#ff3333"
     d="m 61.632818,43.853631 c 0.004,-0.23828 0.0273,-0.47657 0.0508,-0.71485 0,-0.0117 0.004,-0.0312 0.008,-0.0508 0.0195,-0.13672 0.0391,-0.26953 0.0625,-0.40625 0.0742,-0.41406 0.16797,-0.82812 0.27734,-1.23828 0.56641,-2.19922 1.50782,-4.11328 3.03907,-6.00781 6.19531,-7.67578 17.25,-9.1211 26.4375,-9.16016 2.30468,-0.008 2.30468,-3.59765 0,-3.58594 -10.17188,0.0391 -22.0586,1.86719 -28.96485,10.21094 -2.45312,2.96094 -4.46875,7.00391 -4.48047,10.95313 -0.008,2.3125 3.56641,2.3125 3.57032,0"
     fill-opacity="1"
     fill-rule="nonzero"
     id="path3605"
     style="stroke:#ffffff;stroke-width:0.75;stroke-dasharray:none;stroke-opacity:1" />
  <path
     fill="#ff3333"
     d="m 66.511718,21.611441 c 1.37891,-5.80469 6.84766,-9.93359 12.83203,-10.37891 2.28516,-0.16797 2.30078,-3.7578098 0,-3.5859298 -7.4414,0.55078 -14.48047,5.4453098 -16.27734,13.0117098 -0.53516,2.25 2.91016,3.20313 3.44531,0.95313"
     fill-opacity="1"
     fill-rule="nonzero"
     id="path3607"
     style="stroke:#ffffff;stroke-width:0.75;stroke-dasharray:none;stroke-opacity:1" />
  <path
     fill="#ff3333"
     d="m 15.113278,26.287221 c 0.043,0.004 0.0859,-0.004 0.12891,-0.008 9.24609,0.0586 19.96094,1.58203 26.23438,9.15625 1.51562,1.83594 2.41406,3.75 3.0039,5.86719 0.10547,0.38281 0.19141,0.76562 0.26953,1.15625 0.0352,0.17968 0.0625,0.35937 0.0937,0.53906 0,0.0156 0.004,0.0273 0.004,0.043 0.004,0.008 0.004,0.0117 0.004,0.0195 0.0312,0.26172 0.0586,0.53125 0.0586,0.79297 0.008,2.3125 3.57812,2.3125 3.57031,0 -0.0117,-3.98047 -2.05078,-7.94532 -4.47656,-10.95313 -6.77344,-8.39062 -18.91016,-10.17187 -28.96875,-10.21094 -0.0156,0 -0.0312,0.004 -0.043,0.004 -4.13672,-0.19141 -7.14844,-3.92187 -6.30469,-8.05469 0.91407,-4.48828 6.03907,-6.3281198 9.82813,-4.20312 0.78515,0.4414 2.02734,0.25781 2.4414,-0.6445298 1.89844,-4.10938 6.0625,-6.4961 10.57032,-5.59766 4.33203,0.86719 7.28125,4.82031 7.375,9.1523398 0.0508,2.3125 3.62109,2.31641 3.57031,0 -0.12891,-5.8788998 -3.90625,-10.8554598 -9.53516,-12.49999979 -5.47265,-1.59765 -11.35547,1.01953999 -14.30078,5.73046999 -5.58203,-1.98047 -11.80469,1.07422 -13.39453,7.1054698 -1.69922,6.44141 3.53906,12.42188 9.87109,12.60547"
     fill-opacity="1"
     fill-rule="nonzero"
     id="path3609"
     style="stroke:#ffffff;stroke-width:0.75;stroke-dasharray:none;stroke-opacity:1" />
  <g
     clip-path="url(#34cc66440f)"
     id="g3613"
     style="stroke:#ffffff;stroke-width:0.75;stroke-dasharray:none;stroke-opacity:1"
     transform="translate(-134.62109,-127.26356)">
    <path
       fill="#ff3333"
       d="m 239.89453,246.05469 c -9.59766,-15.08594 -19.19141,-30.17578 -28.78516,-45.26172 -1.71484,-2.69531 -3.42968,-5.39063 -5.14062,-8.08594 -1.10156,-1.73047 -2.52344,-2.42187 -4.63281,-1.67969 -3.39844,1.19532 -6.11328,4.16407 -8.6211,6.60938 -1.4375,1.39844 -3.24609,2.55859 -5.30078,2.52734 -1.61328,-0.0273 -2.98437,-1.25 -4.01562,-2.35937 -1.11719,-1.19532 -1.9375,-2.66407 -2.67969,-4.11328 -0.83203,-1.62891 -1.5625,-3.27735 -3.35547,-4.03907 -2.77344,-1.17578 -5.58984,0.41407 -7.71094,2.17188 -1.36328,1.1289 -2.19922,3.11719 -3.10937,4.58594 -2.36328,3.8125 -4.72266,7.62109 -7.08203,11.43359 -5.92969,9.5625 -11.85547,19.12891 -17.78125,28.69531 -1.96485,3.17188 -3.92969,6.34375 -5.89453,9.51563 -0.72266,1.16797 0.21484,2.69922 1.54296,2.69922 15.35157,0 30.70704,0 46.0586,0 17.98437,0 35.97265,0 53.95703,0 0.33594,0 0.67187,0 1.00781,0 0.67578,0 1.15235,-0.30469 1.42969,-0.74219 0.43359,-0.50391 0.58203,-1.21485 0.11328,-1.95703"
       fill-opacity="1"
       fill-rule="nonzero"
       id="path3611"
       style="stroke:#ffffff;stroke-width:0.75;stroke-dasharray:none;stroke-opacity:1" />
  </g>
</svg>
