<?xml version="1.0" encoding="UTF-8" standalone="no"?>
<svg
   width="230.31046pt"
   height="102.5773pt"
   viewBox="0 0 230.31046 102.5773"
   version="1.1"
   id="svg2842"
   sodipodi:docname="Grandlinefinal4.svg"
   xmlns:inkscape="http://www.inkscape.org/namespaces/inkscape"
   xmlns:sodipodi="http://sodipodi.sourceforge.net/DTD/sodipodi-0.dtd"
   xmlns="http://www.w3.org/2000/svg"
   xmlns:svg="http://www.w3.org/2000/svg">
  <sodipodi:namedview
     id="namedview2844"
     pagecolor="#ffffff"
     bordercolor="#000000"
     borderopacity="0.25"
     inkscape:showpageshadow="2"
     inkscape:pageopacity="0.0"
     inkscape:pagecheckerboard="0"
     inkscape:deskcolor="#d1d1d1"
     inkscape:document-units="pt"
     showgrid="false" />
  <defs
     id="defs2823">
    <clipPath
       id="clip1">
      <path
         d="M 266,239 H 497 V 342 H 266 Z m 0,0"
         id="path2811" />
    </clipPath>
    <clipPath
       id="clip2">
      <path
         d="m 273.41016,231.12109 228.17187,16.28516 -6.94141,97.25391 -228.17187,-16.28907 z m 0,0"
         id="path2814" />
    </clipPath>
    <clipPath
       id="clip3">
      <path
         d="m 273.41016,231.12109 228.17187,16.28516 -6.94141,97.25391 -228.17187,-16.28907 z m 0,0"
         id="path2817" />
    </clipPath>
    <clipPath
       id="clip4">
      <path
         d="m 273.41016,231.12109 228.17187,16.28516 -6.94141,97.25391 -228.17187,-16.28907 z m 0,0"
         id="path2820" />
    </clipPath>
  </defs>
  <g
     id="surface1"
     transform="translate(-105.13526,40.867567)">
    <g
       clip-path="url(#clip1)"
       clip-rule="nonzero"
       id="g2839"
       transform="translate(-161.52678,-279.86757)"
       style="fill:#ff3333;fill-opacity:1;stroke:#000000;stroke-opacity:1">
      <g
         clip-path="url(#clip2)"
         clip-rule="nonzero"
         id="g2837"
         style="fill:#ff3333;fill-opacity:1;stroke:#000000;stroke-opacity:1">
        <g
           clip-path="url(#clip3)"
           clip-rule="nonzero"
           id="g2835"
           style="fill:#ff3333;fill-opacity:1;stroke:#000000;stroke-opacity:1">
          <g
             clip-path="url(#clip4)"
             clip-rule="nonzero"
             id="g2833"
             style="fill:#ff3333;fill-opacity:1;stroke:#000000;stroke-opacity:1">
            <path
               style="fill:#ff3333;fill-opacity:1;fill-rule:nonzero;stroke:#000000;stroke-opacity:1"
               d="m 421.24219,314.92187 c 0.008,-0.0195 0.0156,-0.0469 0.0195,-0.0703 0.0117,0.008 0.0156,0.0195 0.0273,0.0312 z m -0.85157,-27.25781 c -0.13281,-0.16797 -0.27734,-0.32812 -0.42187,-0.47656 3.08203,-3.95313 6.15234,-7.91016 9.25391,-11.84375 0.44531,-0.56641 1.01953,-1.4375 1.55468,-1.46094 5.83203,-0.20312 8.625,-4.42187 11.70313,-9.3125 2.17578,3.74219 4.28125,6.82813 5.82422,10.17188 1.55859,3.38672 3.97265,5.36328 7.44922,6.38672 1.61328,0.47265 3.23437,0.95312 4.09375,2.76953 6.84765,14.53906 16.88281,25.99609 32.92187,32.34765 -4.32031,0.77344 -19.80469,-6.01953 -23.45703,-9.80468 -1.29297,3.17578 -2.55469,6.2539 -3.8125,9.33203 -0.16406,-0.0469 -0.33594,-0.0899 -0.5,-0.12891 -0.27734,-3.97656 -0.51953,-7.95312 -0.83203,-11.91797 -0.10938,-1.36328 0.39062,-3.20703 -1.79688,-3.40625 -1.83984,-0.17187 -3.83203,-1.15625 -5.32422,1.03906 -0.87109,1.27735 -1.94531,2.40235 -2.04687,4.66407 -3.33203,-5.3125 -0.19922,-9.85938 -0.11328,-14.91016 -4.91406,-1.27734 -9.21485,-5.40625 -15.42578,-3.33984 1.08984,-1.34766 2.17187,-2.70313 3.26562,-4.04688 3.875,-4.73828 3.875,-4.73828 0.40625,-10.51172 -4.53906,2.71485 -10.45312,3.57813 -12.0664,9.98047 -0.49219,1.94922 -2.44141,2.1211 -3.76172,2.61328 -1.36719,-0.35937 0.21093,-1.89843 -1.49219,-1.96875 -2.07422,0.64453 -3.22656,3.00391 -5.42188,3.82422 z m 6.17579,-3.57031 c 1.07812,-0.30078 1.72656,-0.66797 0.92968,-1.89063 -0.38672,0.55079 -1.30468,0.58204 -0.92968,1.89063 z m -140.2461,24.48828 c -0.12109,-0.16797 -0.25781,-0.32422 -0.39844,-0.47656 5.22657,-4.60938 10.46094,-9.20313 15.66797,-13.82422 1.8711,-1.65625 4.23438,-1.09375 6.33594,-1.23438 2.26953,-0.15234 3.88672,-0.94921 5.42969,-2.51562 2.90234,-2.94531 5.96094,-5.74219 9.0664,-8.71875 4.11329,3.79297 7.16797,8.29687 11.69141,11.90234 2.63672,-2.71875 5.35547,-5.30859 7.82031,-8.12109 2.75782,-3.14844 5.96875,-5.38672 10.12891,-6.15234 2.04297,-0.37891 3.44531,-1.4961 4.58594,-3.26563 2.39062,-3.69531 5.08203,-7.19531 7.48828,-10.88281 1.90625,-2.92578 3.76562,-5.76563 8.40625,-5.64063 -2.26953,-5.21093 1.58594,-7.25781 4.32812,-9.86328 3.60938,-3.43359 7.25782,-6.82031 11.09766,-10.42187 1.72656,4.23828 3.45312,8.01953 4.8125,11.9375 1.71484,4.94531 4.59375,8.85547 9.13672,11.49218 4.96094,2.875 8.17187,7.00391 10.1289,12.44922 1.9336,5.36719 4.57032,10.48438 6.85547,15.72266 0.46094,1.05469 1.10157,1.91406 2.07813,2.49219 6.41015,3.77734 10.67969,9.53906 14.76562,15.53906 3.92578,5.74609 8.04688,11.35547 12.11328,17.01562 -0.3164,-0.0234 -0.63671,-0.0391 -0.95703,-0.0625 -0.40625,-0.0312 -0.80468,-0.0703 -1.20312,-0.0976 -2,-1.85938 -4.03125,-3.69531 -5.80078,-5.75781 -3.25391,-3.78907 -6.875,-6.20313 -12.44922,-4.33594 -0.39844,1.17578 -0.90235,2.58984 -0.23047,4.41797 0.35156,0.94922 0.34375,2.05078 0.043,3.27343 -0.47656,-0.0898 -0.95703,-0.18359 -1.44922,-0.27734 -1.77734,-4.99609 -0.96484,-10.61719 -4.53516,-15.01953 -0.76562,2.47656 0.71094,4.58594 -0.0117,6.69141 -3.3789,-3.28516 -6.15625,-7.13282 -10.1289,-9.90235 -2.04688,-1.42969 -3.85547,-3.12109 -6.27735,-3.97265 -8.67968,-3.0625 -15.71484,-8.89063 -23.2539,-13.8711 -1.70313,-1.125 -2.39063,-3.10937 -3.14844,-4.86328 -1.21484,-2.8125 -3.10156,-4.10156 -6.17969,-4.05469 -1.88672,0.0312 -3.78515,-0.39843 -6.46875,-0.71093 5.04297,-4.61719 9.3125,-8.79688 13.88672,-12.59766 2.4961,-2.07031 5.9375,-0.51953 8.96094,-1.22656 1.58594,-4.99219 -0.25,-8.92969 -3.875,-12.57422 -2.91797,3.71094 -7.53906,5.83594 -9.32422,10.55469 -0.0781,0.19531 -0.33203,0.39843 -0.54687,0.45703 -7.60547,2.0625 -10.0586,9.21484 -14.24219,14.57031 -2.9336,3.75781 -5.23047,8.02344 -11.99219,8.13672 12.12109,7.85937 24.06641,14.46094 30.05859,26.6289 -1.67968,-0.44921 -3.36328,-0.89453 -5.05078,-1.32421 -5.1289,-4.35157 -10.78515,-7.97657 -16.99218,-10.67969 -0.71485,-0.3125 -1.67969,-0.14844 -2.51172,-0.0547 -1.21875,0.12891 -2.40625,0.50781 -3.6211,0.59375 -4.44922,0.30469 -8.68359,1.01953 -12.08984,3.38281 l -5.10938,-0.47656 c -1.89062,-0.13281 -3.76171,-0.23047 -5.53515,-0.28906 -0.71875,-0.0312 -1.4375,-0.0469 -2.15235,-0.0664 2.10157,-1.51172 4.11719,-3.20703 5.60938,-5.68359 -2.56641,-2.3711 -5.20313,-4.80469 -8.11328,-7.4961 -1.50781,3.5586 -1.00781,6.77735 0.48828,10.79297 -5.05859,-1.97656 -8.07031,0.0508 -10.83594,2.64844 -2.05469,0.14063 -4.05469,0.32813 -5.98828,0.57031 -0.0937,-0.47265 -0.19141,-0.94531 -0.28906,-1.45703 -1.76953,0.79688 -3.4336,1.54297 -5.1211,2.29688 -0.87109,0.16406 -1.73046,0.33984 -2.57421,0.52343 -0.0664,-1.05078 -0.1211,-2.01953 -0.20313,-3.37109 -4.26953,2.51172 -8.29687,4.87891 -12.32422,7.25 z m 110.65235,-31.02344 c 7.30468,10.84375 16.28515,19.5 28.53906,24.83203 0.24609,-1.39062 -0.3086,-1.75 -0.80469,-2.04296 -6.08594,-3.5625 -9.58203,-9.20704 -12.70312,-15.26172 -2.65625,-5.16016 -8.8125,-8.11328 -15.03125,-7.52735 z m 94.125,45.52344 c -1.91407,1.57813 -3.9336,2.99609 -6.03907,4.22656 -4.22656,2.46094 -8.75781,4.25 -13.43359,5.39453 -9.36719,2.28516 -19.16016,2.15235 -28.69141,0.69532 -4.77343,-0.71875 -9.5039,-1.80469 -14.14453,-3.14063 -2.3164,-0.67187 -4.60937,-1.43359 -6.83203,-2.25 l -6.91016,-2.71875 -3.55468,-1.39453 c -1.1836,-0.47266 -2.38672,-0.86328 -3.57813,-1.30078 -2.39453,-0.84375 -4.78125,-1.71875 -7.1875,-2.54297 -2.41406,-0.79687 -4.84375,-1.55078 -7.26562,-2.32422 -2.42578,-0.76953 -4.88282,-1.42578 -7.32422,-2.14844 -19.60938,-5.45312 -39.97656,-8.83203 -60.47656,-8.7539 -10.23829,0.0937 -20.5,1.03906 -30.4961,3.25 -4.98828,1.13281 -9.91797,2.51562 -14.67969,4.36328 -2.375,0.92578 -4.71484,1.92969 -7,3.05078 -2.25781,1.16016 -4.49609,2.38281 -6.52343,3.89453 2.30468,-1.02344 4.66406,-1.85156 7.05859,-2.55078 2.39063,-0.71484 4.79688,-1.33203 7.23047,-1.85547 4.85156,-1.03515 9.75391,-1.77344 14.66797,-2.25781 9.82812,-0.96875 19.70312,-0.99219 29.52734,-0.375 19.66016,1.30078 39.07422,5.16406 58.1211,10.42969 9.53906,2.59375 18.97265,5.66406 28.3164,8.94531 l 7.19922,2.51562 c 2.51953,0.82813 5.03906,1.49219 7.57813,2.09766 5.0664,1.21094 10.21875,2.01953 15.41796,2.44922 5.19141,0.41016 10.44141,0.42187 15.64844,-0.14063 5.19922,-0.5664 10.3711,-1.67578 15.27735,-3.52343 4.90234,-1.84766 9.53906,-4.39453 13.53906,-7.67188 2.0039,-1.63672 3.85937,-3.42187 5.53906,-5.34375 1.65625,-1.9414 3.17188,-3.98047 4.46094,-6.14453 -1.71875,1.83594 -3.51172,3.57422 -5.44531,5.125 z m 0,0"
               id="path2831" />
          </g>
        </g>
      </g>
    </g>
  </g>
</svg>
