<?xml version="1.0" encoding="UTF-8" standalone="no"?>
<!-- Created with Inkscape (http://www.inkscape.org/) -->

<svg
   width="336.17078mm"
   height="79.56115mm"
   viewBox="0 0 336.17078 79.56115"
   version="1.1"
   id="svg5355"
   inkscape:export-filename="logo_3.svg"
   inkscape:export-xdpi="82.240738"
   inkscape:export-ydpi="82.240738"
   inkscape:version="1.2.1 (9c6d41e410, 2022-07-14)"
   sodipodi:docname="logo_3.svg"
   xmlns:inkscape="http://www.inkscape.org/namespaces/inkscape"
   xmlns:sodipodi="http://sodipodi.sourceforge.net/DTD/sodipodi-0.dtd"
   xmlns="http://www.w3.org/2000/svg"
   xmlns:svg="http://www.w3.org/2000/svg">
  <sodipodi:namedview
     id="namedview5357"
     pagecolor="#ffffff"
     bordercolor="#000000"
     borderopacity="0.25"
     inkscape:showpageshadow="2"
     inkscape:pageopacity="0.0"
     inkscape:pagecheckerboard="0"
     inkscape:deskcolor="#d1d1d1"
     inkscape:document-units="mm"
     showgrid="false"
     inkscape:zoom="1.2938725"
     inkscape:cx="306.05798"
     inkscape:cy="146.45957"
     inkscape:window-width="2560"
     inkscape:window-height="1351"
     inkscape:window-x="-9"
     inkscape:window-y="-9"
     inkscape:window-maximized="1"
     inkscape:current-layer="layer1" />
  <defs
     id="defs5352" />
  <g
     inkscape:label="Ebene 1"
     inkscape:groupmode="layer"
     id="layer1"
     transform="translate(67.358745,-96.371804)">
    <path
       style="fill:#2d2d30;fill-opacity:1;stroke:#ffffff;stroke-width:0.847;stroke-dasharray:none;stroke-opacity:1"
       d="m 51.765334,167.15287 37.207628,-70.273607 23.677578,7.256507 33.82511,62.63518 c 4.43535,11.23973 -97.684451,11.92317 -94.710316,0.38192 z"
       id="path5902"
       sodipodi:nodetypes="ccccc" />
    <path
       style="fill:#ff3333;fill-opacity:1;stroke:none;stroke-width:0.832179;stroke-dasharray:none;stroke-opacity:1"
       d="m 89.271563,97.249424 -8.35226,15.925946 8.613266,-2.25617 9.526796,2.65433 8.613265,-2.65433 9.78781,2.91976 -5.22017,-9.68829 z"
       id="path5953" />
    <path
       sodipodi:type="star"
       style="fill:#ff3333;fill-opacity:0.980392;stroke:none;stroke-width:0.264999;stroke-dasharray:none;stroke-opacity:1"
       id="path15449"
       inkscape:flatsided="false"
       sodipodi:sides="5"
       sodipodi:cx="19.017523"
       sodipodi:cy="43.351772"
       sodipodi:r1="6.8709683"
       sodipodi:r2="3.4354842"
       sodipodi:arg1="0.93324753"
       sodipodi:arg2="1.5615661"
       inkscape:rounded="0"
       inkscape:randomized="0"
       d="m 23.107312,48.872988 -4.058079,-2.085878 -4.018884,2.160433 0.729772,-4.504035 -3.296597,-3.154575 4.509104,-0.697769 1.981475,-4.110067 2.057007,4.07279 4.521216,0.614414 -3.237804,3.214891 z"
       inkscape:transform-center-x="0.019598153"
       inkscape:transform-center-y="-0.63745297"
       transform="translate(45.601158,120.25019)" />
    <path
       sodipodi:type="star"
       style="fill:#ff3333;fill-opacity:0.980392;stroke:none;stroke-width:0.264999;stroke-dasharray:none;stroke-opacity:1"
       id="path15449-0"
       inkscape:flatsided="false"
       sodipodi:sides="5"
       sodipodi:cx="32.92281"
       sodipodi:cy="46.623604"
       sodipodi:r1="6.8709683"
       sodipodi:r2="3.4354842"
       sodipodi:arg1="0.93324753"
       sodipodi:arg2="1.5615661"
       inkscape:rounded="0"
       inkscape:randomized="0"
       d="m 37.012599,52.14482 -4.05808,-2.085878 -4.018883,2.160433 0.729772,-4.504036 -3.296597,-3.154575 4.509104,-0.697768 1.981475,-4.110068 2.057007,4.072791 4.521216,0.614413 -3.237804,3.214892 z"
       inkscape:transform-center-x="0.019598153"
       inkscape:transform-center-y="-0.63745297"
       transform="translate(66.435036,120.97835)" />
    <path
       sodipodi:type="star"
       style="fill:#ff3333;fill-opacity:0.980392;stroke:none;stroke-width:0.264999;stroke-dasharray:none;stroke-opacity:1"
       id="path15449-4"
       inkscape:flatsided="false"
       sodipodi:sides="5"
       sodipodi:cx="-3.2718325"
       sodipodi:cy="45.805645"
       sodipodi:r1="6.8709683"
       sodipodi:r2="3.4354842"
       sodipodi:arg1="0.93324753"
       sodipodi:arg2="1.5615661"
       inkscape:rounded="0"
       inkscape:randomized="0"
       d="m 0.81795718,51.326861 -4.05807978,-2.085878 -4.0188839,2.160433 0.7297725,-4.504035 -3.2965972,-3.154576 4.509104,-0.697768 1.9814748,-4.110068 2.057007,4.072791 4.5212159,0.614413 -3.23780366,3.214892 z"
       inkscape:transform-center-x="0.019598153"
       inkscape:transform-center-y="-0.63745297"
       transform="translate(84.065635,120.79631)" />
    <path
       sodipodi:type="star"
       style="fill:#ff3333;fill-opacity:0.980392;stroke:none;stroke-width:0.264999;stroke-dasharray:none;stroke-opacity:1"
       id="path15449-5"
       inkscape:flatsided="false"
       sodipodi:sides="5"
       sodipodi:cx="13.291816"
       sodipodi:cy="45.396667"
       sodipodi:r1="6.8709683"
       sodipodi:r2="3.4354842"
       sodipodi:arg1="0.93324753"
       sodipodi:arg2="1.5615661"
       inkscape:rounded="0"
       inkscape:randomized="0"
       d="m 17.381605,50.917884 -4.058079,-2.085879 -4.0188842,2.160433 0.7297722,-4.504035 -3.2965969,-3.154575 4.5091039,-0.697769 1.981475,-4.110067 2.057007,4.07279 4.521216,0.614414 -3.237804,3.214891 z"
       inkscape:transform-center-x="0.019598153"
       inkscape:transform-center-y="-0.63745297"
       transform="translate(103.65203,121.20529)" />
    <path
       sodipodi:type="star"
       style="fill:#ff3333;fill-opacity:0.980392;stroke:none;stroke-width:0.264999;stroke-dasharray:none;stroke-opacity:1"
       id="path15449-5-0"
       inkscape:flatsided="false"
       sodipodi:sides="5"
       sodipodi:cx="22.289354"
       sodipodi:cy="35.99015"
       sodipodi:r1="6.8709683"
       sodipodi:r2="3.4354842"
       sodipodi:arg1="0.93324753"
       sodipodi:arg2="1.5615661"
       inkscape:rounded="0"
       inkscape:randomized="0"
       d="m 26.379144,41.511366 -4.05808,-2.085878 -4.018884,2.160433 0.729773,-4.504035 -3.296597,-3.154575 4.509104,-0.697769 1.981474,-4.110067 2.057007,4.07279 4.521216,0.614414 -3.237803,3.214891 z"
       inkscape:transform-center-x="0.019598153"
       inkscape:transform-center-y="-0.63745297"
       transform="translate(110.94349,127.61181)" />
    <g
       aria-label="Grandline Hotel"
       id="text362"
       style="font-size:35.2777px;font-family:'Copperplate Gothic Bold';-inkscape-font-specification:'Copperplate Gothic Bold, ';fill:#ffffff;stroke:#000000;stroke-width:0.247;stroke-opacity:1;stroke-dasharray:none;fill-opacity:1">
      <path
         d="m -45.672347,139.19146 h -5.804973 q -0.533989,0 -0.809596,0.24116 -0.258381,0.24116 -0.430636,0.86127 h -0.551214 v -5.47769 h 0.551214 q 0.172255,0.63734 0.430636,0.8785 0.275607,0.22393 0.809596,0.22393 h 11.162084 v 0.55121 q -0.620116,0.17226 -0.878497,0.44787 -0.241156,0.2756 -0.241156,0.80959 v 4.82312 q 0,0.53399 0.241156,0.8096 0.241156,0.27561 0.878497,0.44786 v 0.43064 q -6.700695,3.82405 -12.987981,3.82405 -5.70162,0 -9.301736,-2.7044 -4.530291,-3.41064 -4.530291,-9.47399 0,-5.64994 4.030753,-8.99168 3.824047,-3.16948 10.163009,-3.16948 2.015376,0 3.789596,0.37896 1.791446,0.36173 4.065204,1.24023 1.17133,0.46509 1.670867,0.46509 0.361734,0 0.844047,-0.39619 l 0.482312,0.25838 -2.75607,5.63272 -0.499538,-0.25838 q -0.01722,-0.56844 -0.155029,-0.80959 -0.137803,-0.25839 -0.620116,-0.62012 -1.050751,-0.79237 -3.083353,-1.34358 -2.032602,-0.56844 -3.841273,-0.56844 -3.686244,0 -6.115031,2.06705 -2.738844,2.34266 -2.738844,6.18393 0,3.7207 2.669943,6.01168 2.446012,2.1015 6.442314,2.1015 1.946474,0 3.841272,-0.44786 1.894799,-0.44786 3.272834,-1.223 z"
         id="path3256"
         style="stroke:#000000;stroke-opacity:1;stroke-width:0.247;stroke-dasharray:none;fill:#ffffff;fill-opacity:1" />
      <path
         d="m -31.030723,139.72545 v 6.16671 q 0,0.53399 0.241156,0.82682 0.241156,0.27561 0.861272,0.46509 v 0.46508 h -6.821274 v -0.48231 q 0.60289,-0.15503 0.844046,-0.44786 0.258382,-0.29283 0.258382,-0.82682 v -15.7785 q 0,-0.53399 -0.241156,-0.8096 -0.241156,-0.2756 -0.861272,-0.46508 v -0.48232 h 12.643472 q 2.463238,0 3.755146,0.25838 1.291907,0.24116 2.308208,0.89573 2.084278,1.36081 2.084278,4.44416 0,2.34266 -1.291907,3.66902 -1.274683,1.30913 -4.134106,1.8948 l 3.651793,5.09873 q 0.999076,1.41248 1.584741,1.92925 0.60289,0.49953 1.360809,0.63734 v 0.46508 h -8.095956 v -0.46508 q 0.895723,-0.24116 0.895723,-0.77515 0,-0.37896 -0.551214,-1.1541 l -3.858498,-5.52937 z m 0,-3.49676 h 6.959077 q 1.58474,0 2.342659,-0.34451 1.067978,-0.46509 1.067978,-1.84312 0,-1.22301 -0.75792,-1.70532 -0.740694,-0.48231 -2.652717,-0.48231 h -6.959077 z"
         id="path3258"
         style="stroke:#000000;stroke-opacity:1;stroke-width:0.247;stroke-dasharray:none;fill:#ffffff;fill-opacity:1" />
      <path
         d="m 2.972292,142.82603 h -8.871101 l -0.9990754,2.10151 q -0.3617342,0.75791 -0.3617342,1.18855 0,0.82682 1.102428,1.05075 v 0.48231 h -7.0968804 v -0.48231 q 0.654566,-0.10335 0.964624,-0.39618 0.327284,-0.29284 0.75792,-1.15411 l 7.045204,-14.26266 q 0.3961851,-0.8096 0.3961851,-1.41249 0,-0.70624 -0.9646246,-1.10242 v -0.48232 h 7.4930659 v 0.48232 q -0.9473992,0.37896 -0.9473992,1.17133 0,0.56843 0.430636,1.39526 l 7.303586,13.83202 q 0.6028904,1.13688 0.9473988,1.48139 0.344509,0.32728 1.050752,0.46509 v 0.46508 H 3.3512516 v -0.46508 q 1.1196535,-0.18948 1.1196535,-1.05075 0,-0.53399 -0.4306359,-1.32636 z m -1.3952606,-2.70439 -3.1522553,-6.18393 -2.9972263,6.18393 z"
         id="path3260"
         style="stroke:#000000;stroke-opacity:1;stroke-width:0.247;stroke-dasharray:none;fill:#ffffff;fill-opacity:1" />
      <path
         d="m 18.130682,134.93678 v 10.95538 q 0,0.53399 0.241156,0.82682 0.258381,0.29283 0.861272,0.46509 v 0.46508 h -6.407863 v -0.48231 q 0.60289,-0.15503 0.844046,-0.44786 0.258382,-0.29283 0.258382,-0.82682 v -15.7785 q 0,-0.53399 -0.241156,-0.8096 -0.241157,-0.2756 -0.861272,-0.46508 v -0.48232 h 7.406938 v 0.48232 q -0.757919,0.18948 -0.757919,0.67179 0,0.41341 0.551214,0.96462 l 10.335263,10.26636 v -10.62809 q 0,-0.53399 -0.241156,-0.8096 -0.241156,-0.29283 -0.861272,-0.46508 v -0.48232 h 6.407863 v 0.48232 q -0.620115,0.17225 -0.861272,0.46508 -0.241156,0.27561 -0.241156,0.8096 v 15.7785 q 0,0.53399 0.241156,0.82682 0.241157,0.27561 0.861272,0.46509 v 0.46508 h -6.907401 v -0.46508 q 0.75792,-0.15503 0.75792,-0.63734 0,-0.24116 -0.206706,-0.49954 -0.206705,-0.25838 -0.947399,-1.0163 z"
         id="path3262"
         style="stroke:#000000;stroke-opacity:1;stroke-width:0.247;stroke-dasharray:none;fill:#ffffff;fill-opacity:1" />
      <path
         d="m 40.162012,145.89216 v -15.7785 q 0,-0.53399 -0.241157,-0.8096 -0.241156,-0.2756 -0.861272,-0.46508 v -0.48232 h 11.317114 q 3.531215,0 5.563816,0.8785 2.859423,1.24023 4.11688,4.09966 0.878498,1.99815 0.878498,4.66809 0,4.9437 -2.94555,7.49306 -1.326359,1.13688 -3.13503,1.65365 -1.791446,0.49953 -4.478614,0.49953 H 39.059583 v -0.48231 q 0.602891,-0.15503 0.844047,-0.44786 0.258382,-0.29283 0.258382,-0.82682 z m 4.616417,-1.73977 h 4.926476 q 3.393411,0 4.926475,-1.55029 1.601966,-1.61919 1.601966,-4.59919 0,-2.98 -1.601966,-4.59919 -0.79237,-0.8096 -1.9637,-1.17133 -1.17133,-0.37896 -2.962775,-0.37896 h -4.926476 z"
         id="path3264"
         style="stroke:#000000;stroke-opacity:1;stroke-width:0.247;stroke-dasharray:none;fill:#ffffff;fill-opacity:1" />
      <path
         d="m 69.600298,144.15239 h 10.80035 q 0.551214,0 0.826821,-0.24116 0.275607,-0.24115 0.465087,-0.87849 h 0.465087 v 5.71884 h -0.465087 q -0.172254,-0.62011 -0.465087,-0.86127 -0.275607,-0.24116 -0.826821,-0.24116 H 63.881452 v -0.48231 q 0.602891,-0.15503 0.844047,-0.44786 0.258381,-0.29283 0.258381,-0.82682 v -15.7785 q 0,-0.53399 -0.241156,-0.8096 -0.241156,-0.2756 -0.861272,-0.46508 v -0.48232 h 6.821274 v 0.48232 q -0.620116,0.17225 -0.861272,0.46508 -0.241156,0.27561 -0.241156,0.8096 z"
         id="path3266"
         style="stroke:#000000;stroke-opacity:1;stroke-width:0.247;stroke-dasharray:none;fill:#ffffff;fill-opacity:1" />
      <path
         d="m 89.857409,130.11366 v 15.7785 q 0,0.53399 0.241156,0.82682 0.241156,0.27561 0.861272,0.46509 v 0.46508 h -6.821274 v -0.48231 q 0.60289,-0.15503 0.844046,-0.44786 0.258382,-0.29283 0.258382,-0.82682 v -15.7785 q 0,-0.53399 -0.241156,-0.8096 -0.241156,-0.2756 -0.861272,-0.46508 v -0.48232 h 6.821274 v 0.48232 q -0.620116,0.17225 -0.861272,0.46508 -0.241156,0.27561 -0.241156,0.8096 z"
         id="path3268"
         style="stroke:#000000;stroke-opacity:1;stroke-width:0.247;stroke-dasharray:none;fill:#ffffff;fill-opacity:1" />
      <path
         d="m 99.658689,134.93678 v 10.95538 q 0,0.53399 0.241156,0.82682 0.258385,0.29283 0.861275,0.46509 v 0.46508 h -6.407866 v -0.48231 q 0.60289,-0.15503 0.844047,-0.44786 0.258381,-0.29283 0.258381,-0.82682 v -15.7785 q 0,-0.53399 -0.241156,-0.8096 -0.241156,-0.2756 -0.861272,-0.46508 v -0.48232 h 7.406936 v 0.48232 q -0.75792,0.18948 -0.75792,0.67179 0,0.41341 0.55122,0.96462 l 10.33526,10.26636 v -10.62809 q 0,-0.53399 -0.24116,-0.8096 -0.24115,-0.29283 -0.86127,-0.46508 v -0.48232 h 6.40787 v 0.48232 q -0.62012,0.17225 -0.86128,0.46508 -0.24115,0.27561 -0.24115,0.8096 v 15.7785 q 0,0.53399 0.24115,0.82682 0.24116,0.27561 0.86128,0.46509 v 0.46508 h -6.90741 v -0.46508 q 0.75792,-0.15503 0.75792,-0.63734 0,-0.24116 -0.2067,-0.49954 -0.20671,-0.25838 -0.9474,-1.0163 z"
         id="path3270"
         style="stroke:#000000;stroke-opacity:1;stroke-width:0.247;stroke-dasharray:none;fill:#ffffff;fill-opacity:1" />
      <path
         d="m 126.30643,139.44985 v 4.70254 h 12.24729 q 0.53398,0 0.80959,-0.24116 0.29283,-0.24115 0.46509,-0.87849 h 0.48231 v 5.71884 h -0.48231 q -0.15503,-0.60289 -0.44786,-0.86127 -0.29284,-0.24116 -0.82682,-0.24116 h -17.96614 v -0.48231 q 0.60289,-0.15503 0.84405,-0.44786 0.25838,-0.29283 0.25838,-0.82682 v -15.7785 q 0,-0.53399 -0.24115,-0.8096 -0.24116,-0.2756 -0.86128,-0.46508 v -0.48232 h 17.43215 q 0.55121,0 0.82682,-0.24115 0.29283,-0.24116 0.46509,-0.86127 h 0.46508 v 5.71884 h -0.46508 q -0.17226,-0.63734 -0.46509,-0.8785 -0.27561,-0.24115 -0.82682,-0.24115 h -11.7133 v 4.23746 h 7.26913 q 0.53399,0 0.8096,-0.24116 0.29283,-0.24116 0.48231,-0.86127 h 0.46509 v 5.58104 h -0.46509 q -0.17225,-0.62012 -0.46508,-0.86127 -0.27561,-0.25838 -0.82683,-0.25838 z"
         id="path3272"
         style="stroke:#000000;stroke-opacity:1;stroke-width:0.247;stroke-dasharray:none;fill:#ffffff;fill-opacity:1" />
      <path
         d="m 172.26391,137.38279 h -13.55642 v 8.47492 q 0,0.51676 0.24115,0.80959 0.25838,0.27561 0.86128,0.43064 v 0.55121 h -7.33804 v -0.55121 q 0.62011,-0.17225 0.86127,-0.44786 0.24116,-0.27561 0.24116,-0.79237 v -19.92983 q 0,-0.51677 -0.24116,-0.79237 -0.24116,-0.27561 -0.86127,-0.44787 v -0.55121 h 7.33804 v 0.55121 q -0.62012,0.15503 -0.86128,0.44787 -0.24115,0.2756 -0.24115,0.79237 v 7.57919 h 13.55642 v -7.57919 q 0,-0.51677 -0.24116,-0.79237 -0.24115,-0.29284 -0.86127,-0.44787 v -0.55121 h 7.33804 v 0.55121 q -0.62012,0.17226 -0.86128,0.44787 -0.24115,0.2756 -0.24115,0.79237 v 19.92983 q 0,0.51676 0.24115,0.79237 0.24116,0.27561 0.86128,0.44786 v 0.55121 h -7.33804 v -0.55121 q 0.60289,-0.15503 0.84405,-0.43064 0.25838,-0.29283 0.25838,-0.80959 z"
         id="path3274"
         style="stroke:#000000;stroke-opacity:1;stroke-width:0.247;stroke-dasharray:none;fill:#ffffff;fill-opacity:1" />
      <path
         d="m 193.15836,127.94325 q 4.59919,0 7.66532,2.34266 3.66902,2.82497 3.66902,7.87203 0,4.73699 -3.66902,7.56197 -3.03168,2.34266 -7.63087,2.34266 -4.59919,0 -7.63087,-2.34266 -3.68624,-2.82498 -3.68624,-7.717 0,-4.9437 3.68624,-7.717 3.0489,-2.29098 7.59642,-2.34266 z m 0.0172,3.6518 q -2.98001,0 -4.85758,1.91202 -1.73977,1.79145 -1.73977,4.49584 0,2.68717 1.73977,4.47861 1.87757,1.92925 4.8748,1.92925 2.98,0 4.85757,-1.92925 1.73977,-1.77422 1.73977,-4.39248 0,-2.8422 -1.73977,-4.58197 -1.89479,-1.87757 -4.87479,-1.91202 z"
         id="path3276"
         style="stroke:#000000;stroke-opacity:1;stroke-width:0.247;stroke-dasharray:none;fill:#ffffff;fill-opacity:1" />
      <path
         d="m 218.0319,131.85343 v 14.03873 q 0,0.53399 0.24116,0.82682 0.24115,0.27561 0.86127,0.46509 v 0.46508 h -6.82128 v -0.48231 q 0.6029,-0.15503 0.84405,-0.44786 0.25838,-0.29283 0.25838,-0.82682 v -14.03873 h -5.68439 q -0.55122,0 -0.84405,0.25838 -0.27561,0.24116 -0.44786,0.86127 h -0.46509 v -5.71884 h 0.48232 q 0.15502,0.60289 0.43063,0.86127 0.29283,0.24115 0.84405,0.24115 h 15.98521 q 0.55121,0 0.82682,-0.24115 0.29283,-0.24116 0.46508,-0.86127 h 0.46509 v 5.71884 h -0.46509 q -0.17225,-0.62011 -0.46508,-0.86127 -0.27561,-0.25838 -0.82682,-0.25838 z"
         id="path3278"
         style="stroke:#000000;stroke-opacity:1;stroke-width:0.247;stroke-dasharray:none;fill:#ffffff;fill-opacity:1" />
      <path
         d="m 233.39699,139.44985 v 4.70254 h 12.24729 q 0.53399,0 0.80959,-0.24116 0.29283,-0.24115 0.46509,-0.87849 h 0.48231 v 5.71884 h -0.48231 q -0.15503,-0.60289 -0.44786,-0.86127 -0.29283,-0.24116 -0.82682,-0.24116 h -17.96614 v -0.48231 q 0.60289,-0.15503 0.84405,-0.44786 0.25838,-0.29283 0.25838,-0.82682 v -15.7785 q 0,-0.53399 -0.24115,-0.8096 -0.24116,-0.2756 -0.86128,-0.46508 v -0.48232 h 17.43215 q 0.55121,0 0.82682,-0.24115 0.29283,-0.24116 0.46509,-0.86127 h 0.46508 v 5.71884 h -0.46508 q -0.17226,-0.63734 -0.46509,-0.8785 -0.27561,-0.24115 -0.82682,-0.24115 h -11.7133 v 4.23746 h 7.26914 q 0.53398,0 0.80959,-0.24116 0.29283,-0.24116 0.48231,-0.86127 h 0.46509 v 5.58104 h -0.46509 q -0.17225,-0.62012 -0.46508,-0.86127 -0.27561,-0.25838 -0.82682,-0.25838 z"
         id="path3280"
         style="stroke:#000000;stroke-opacity:1;stroke-width:0.247;stroke-dasharray:none;fill:#ffffff;fill-opacity:1" />
      <path
         d="m 256.03121,144.15239 h 10.80035 q 0.55121,0 0.82682,-0.24116 0.2756,-0.24115 0.46508,-0.87849 h 0.46509 v 5.71884 h -0.46509 q -0.17225,-0.62011 -0.46508,-0.86127 -0.27561,-0.24116 -0.82682,-0.24116 h -16.5192 v -0.48231 q 0.60289,-0.15503 0.84405,-0.44786 0.25838,-0.29283 0.25838,-0.82682 v -15.7785 q 0,-0.53399 -0.24116,-0.8096 -0.24115,-0.2756 -0.86127,-0.46508 v -0.48232 h 6.82127 v 0.48232 q -0.62011,0.17225 -0.86127,0.46508 -0.24115,0.27561 -0.24115,0.8096 z"
         id="path3282"
         style="stroke:#000000;stroke-opacity:1;stroke-width:0.247;stroke-dasharray:none;fill:#ffffff;fill-opacity:1" />
    </g>
  </g>
</svg>
