<?xml version="1.0" encoding="UTF-8" standalone="no"?>
<!-- Created with Inkscape (http://www.inkscape.org/) -->

<svg
   width="192.91528mm"
   height="134.97513mm"
   viewBox="0 0 192.91529 134.97513"
   version="1.1"
   id="svg5355"
   inkscape:export-filename="..\Desktop\FH\5. Semester\Teamprojekt\Teamprojekt---Hotel\doc\logos\logo_3.svg"
   inkscape:export-xdpi="82.240738"
   inkscape:export-ydpi="82.240738"
   inkscape:version="1.2.1 (9c6d41e410, 2022-07-14)"
   sodipodi:docname="logo_6.svg"
   xmlns:inkscape="http://www.inkscape.org/namespaces/inkscape"
   xmlns:sodipodi="http://sodipodi.sourceforge.net/DTD/sodipodi-0.dtd"
   xmlns="http://www.w3.org/2000/svg"
   xmlns:svg="http://www.w3.org/2000/svg">
  <sodipodi:namedview
     id="namedview5357"
     pagecolor="#ffffff"
     bordercolor="#000000"
     borderopacity="0.25"
     inkscape:showpageshadow="2"
     inkscape:pageopacity="0.0"
     inkscape:pagecheckerboard="0"
     inkscape:deskcolor="#d1d1d1"
     inkscape:document-units="mm"
     showgrid="false"
     inkscape:zoom="1.829812"
     inkscape:cx="316.6992"
     inkscape:cy="263.68829"
     inkscape:window-width="2560"
     inkscape:window-height="1351"
     inkscape:window-x="-9"
     inkscape:window-y="-9"
     inkscape:window-maximized="1"
     inkscape:current-layer="layer1" />
  <defs
     id="defs5352" />
  <g
     inkscape:label="Ebene 1"
     inkscape:groupmode="layer"
     id="layer1"
     transform="translate(-9.6167178,-29.361907)">
    <g
       aria-label="Grandline Hotel"
       id="text7437"
       style="font-size:31.75px;font-family:'Gill Sans Ultra Bold';-inkscape-font-specification:'Gill Sans Ultra Bold, ';fill:#ff3333;fill-opacity:0.98039216;stroke:#363032;stroke-width:0.865">
      <path
         d="m 34.667871,114.13001 -5.053956,7.11584 q -3.162597,-1.51929 -5.844604,-1.51929 -1.782837,0 -2.868042,0.93018 -1.069702,0.91467 -1.069702,2.43396 0,2.88354 3.782715,2.88354 v -3.7052 h 10.47998 v 12.75891 q -6.356201,0.35657 -8.604126,0.35657 -8.68164,0 -12.061279,-3.6897 -3.379639,-3.68969 -3.379639,-8.60412 0,-3.37964 1.565796,-6.20117 1.581299,-2.82154 4.542358,-4.37183 2.976563,-1.55029 7.038331,-1.55029 2.852539,0 5.906616,0.83716 3.054077,0.82165 5.565552,2.32544 z"
         id="path17051"
         style="fill:#ff3333;fill-opacity:0.98039216" />
      <path
         d="m 46.915185,120.4242 q 1.829346,-4.24781 5.302001,-4.24781 1.937867,0 3.193604,1.27124 1.255737,1.27124 1.255737,3.22461 0,2.04639 -1.240234,3.31763 -1.224732,1.25574 -3.209107,1.25574 -2.263427,0 -3.875731,-1.70533 -1.42627,1.20923 -1.42627,4.49585 v 6.96082 h -9.580811 v -18.66553 h 9.580811 z"
         id="path17053"
         style="fill:#ff3333;fill-opacity:0.98039216" />
      <path
         d="m 57.751732,124.00537 v -5.61206 q 4.061768,-2.21692 9.208741,-2.21692 4.898926,0 7.224365,2.0929 2.32544,2.09289 2.32544,6.40271 v 10.32495 h -9.580811 v -1.39526 q -2.123902,1.55029 -4.666382,1.55029 -2.139404,0 -3.565674,-1.37976 -1.426269,-1.39527 -1.426269,-3.50366 0,-2.40296 1.767334,-3.90674 1.767334,-1.51929 4.619873,-1.51929 1.674316,0 3.271118,0.43408 0,-1.30224 -1.007691,-2.03088 -0.992187,-0.72864 -2.775024,-0.72864 -2.635498,0 -5.39502,1.48828 z m 9.177735,6.8678 v -2.60449 q -0.868164,-0.29456 -1.565796,-0.29456 -0.868164,0 -1.395264,0.44959 -0.527099,0.44958 -0.527099,1.17822 0,0.75964 0.558105,1.27124 0.573608,0.5116 1.441773,0.5116 0.883667,0 1.488281,-0.5116 z"
         id="path17055"
         style="fill:#ff3333;fill-opacity:0.98039216" />
      <path
         d="m 89.59475,116.33142 v 2.34094 q 2.418457,-2.49597 5.782593,-2.49597 3.271118,0 5.007447,1.82935 1.75183,1.81384 1.75183,5.39502 v 11.59619 h -9.05371 v -10.88306 q 0,-2.32544 -1.767334,-2.32544 -0.852662,0 -1.720826,0.60462 v 12.60388 h -9.58081 v -18.66553 z"
         id="path17057"
         style="fill:#ff3333;fill-opacity:0.98039216" />
      <path
         d="m 127.37539,111.33948 v 23.65747 h -11.39465 q -5.22449,0 -8.10804,-2.69751 -2.88354,-2.69751 -2.88354,-6.79028 0,-3.98426 2.61999,-6.65076 2.6355,-2.68201 6.55774,-2.68201 2.17041,0 3.61219,0.66663 v -5.50354 z m -9.59631,16.86719 v -4.2013 q -0.71314,-0.46509 -1.61231,-0.46509 -0.85266,0 -1.41077,0.68213 -0.5581,0.66663 -0.5581,1.68982 0,1.19373 0.66663,1.75183 0.68212,0.54261 2.1549,0.54261 z"
         id="path17059"
         style="fill:#ff3333;fill-opacity:0.98039216" />
      <path
         d="m 140.56838,134.99695 h -9.58081 v -23.65747 h 9.58081 z"
         id="path17061"
         style="fill:#ff3333;fill-opacity:0.98039216" />
      <path
         d="m 151.07937,116.39343 q -1.11621,0 -1.92236,-0.80615 -0.80616,-0.80615 -0.80616,-1.92236 0,-1.11621 0.80616,-1.90686 0.80615,-0.79065 1.92236,-0.79065 1.11621,0 1.90686,0.79065 0.79065,0.79065 0.79065,1.90686 0,1.11621 -0.79065,1.92236 -0.79065,0.80615 -1.90686,0.80615 z m 2.75952,-0.062 v 18.66553 h -9.58081 v -18.66553 q 1.89136,1.0697 4.91443,1.0697 2.80603,0 4.66638,-1.0697 z"
         id="path17063"
         style="fill:#ff3333;fill-opacity:0.98039216" />
      <path
         d="m 166.98537,116.33142 v 2.34094 q 2.41846,-2.49597 5.7826,-2.49597 3.27112,0 5.00744,1.82935 1.75183,1.81384 1.75183,5.39502 v 11.59619 h -9.05371 v -10.88306 q 0,-2.32544 -1.76733,-2.32544 -0.85266,0 -1.72083,0.60462 v 12.60388 h -9.58081 v -18.66553 z"
         id="path17065"
         style="fill:#ff3333;fill-opacity:0.98039216" />
      <path
         d="m 202.09951,127.8811 v 3.27112 q -3.14709,4.12378 -9.05371,4.12378 -4.86792,0 -7.82898,-2.69751 -2.96106,-2.71301 -2.96106,-7.13135 0,-4.20129 2.71301,-6.85229 2.72852,-2.651 7.06934,-2.651 2.21692,0 4.10828,0.74414 1.89135,0.74414 3.27111,2.18591 1.37976,1.44177 2.03089,3.34863 0.65112,1.90687 0.65112,4.65088 h -9.78235 q 0.5271,1.42627 1.76734,2.23243 1.24023,0.80615 2.83703,0.80615 3.22461,0 5.17798,-2.03089 z m -10.35596,-4.2788 h 4.51136 q -0.062,-1.39527 -0.69764,-2.17041 -0.62011,-0.79065 -1.6278,-0.79065 -0.88367,0 -1.53479,0.75964 -0.65113,0.74414 -0.65113,2.20142 z"
         id="path17067"
         style="fill:#ff3333;fill-opacity:0.98039216" />
      <path
         d="m 63.160522,163.62548 h -10.47998 v -23.65747 h 10.47998 v 8.66614 h 5.33301 v -8.66614 h 10.47998 v 23.65747 h -10.47998 v -8.79016 h -5.33301 z"
         id="path17069"
         style="fill:#ff3333;fill-opacity:0.98039216" />
      <path
         d="m 92.631592,163.90453 q -4.43384,0 -7.31738,-2.6665 -2.86805,-2.68201 -2.86805,-6.97632 0,-4.29431 2.83704,-6.99182 2.83704,-2.69751 7.34839,-2.69751 4.542361,0 7.379388,2.69751 2.85254,2.69751 2.85254,6.99182 0,4.27881 -2.85254,6.96081 -2.837027,2.68201 -7.379388,2.68201 z m 0,-11.96826 q -0.93018,0 -1.51929,0.60461 -0.57361,0.58912 -0.57361,1.53479 0,0.94568 0.57361,1.53479 0.58911,0.58912 1.51929,0.58912 0.94568,0 1.53479,-0.58912 0.58911,-0.58911 0.58911,-1.53479 0,-0.96118 -0.58911,-1.55029 -0.58911,-0.58911 -1.53479,-0.58911 z"
         id="path17071"
         style="fill:#ff3333;fill-opacity:0.98039216" />
      <path
         d="m 120.86242,144.95995 v 5.23999 h -3.99975 v 3.99976 q 0,2.03088 1.81384,2.03088 1.33325,0 2.29444,-1.33325 v 7.3949 q -2.26343,1.48828 -5.50354,1.48828 -3.45716,0 -5.82911,-2.06189 -2.35644,-2.06189 -2.35644,-5.67407 v -5.84461 h -3.90674 l 13.48755,-10.573 v 5.33301 z"
         id="path17073"
         style="fill:#ff3333;fill-opacity:0.98039216" />
      <path
         d="m 142.9386,156.50963 v 3.27112 q -3.1471,4.12378 -9.05371,4.12378 -4.86792,0 -7.82898,-2.69751 -2.96106,-2.71301 -2.96106,-7.13135 0,-4.20129 2.71301,-6.85229 2.72851,-2.651 7.06934,-2.651 2.21691,0 4.10827,0.74414 1.89136,0.74414 3.27112,2.18591 1.37976,1.44177 2.03088,3.34863 0.65113,1.90687 0.65113,4.65088 h -9.78235 q 0.5271,1.42627 1.76733,2.23243 1.24024,0.80615 2.83704,0.80615 3.22461,0 5.17798,-2.03089 z m -10.35596,-4.2788 h 4.51135 q -0.062,-1.39527 -0.69763,-2.17041 -0.62012,-0.79065 -1.62781,-0.79065 -0.88366,0 -1.53479,0.75964 -0.65112,0.74414 -0.65112,2.20142 z"
         id="path17075"
         style="fill:#ff3333;fill-opacity:0.98039216" />
      <path
         d="m 155.51147,163.62548 h -9.58081 v -23.65747 h 9.58081 z"
         id="path17077"
         style="fill:#ff3333;fill-opacity:0.98039216" />
    </g>
    <path
       style="fill:#2d2d30;fill-opacity:1;stroke:#363032;stroke-width:0.847;stroke-dasharray:none;stroke-opacity:1"
       d="m 64.281027,84.690636 26.941319,-53.21129 23.677574,7.256507 22.40203,43.54852 C 123.4492,114.59722 80.045095,119.70891 64.281027,84.690636 Z"
       id="path5902"
       sodipodi:nodetypes="ccccc" />
    <path
       style="fill:#ff3333;fill-opacity:1;stroke:#363032;stroke-width:0.847;stroke-dasharray:none;stroke-opacity:1"
       d="m 91.314997,31.849507 -8.504167,16.203568 8.76992,-2.2955 9.70006,2.7006 8.76992,-2.7006 9.96582,2.97066 -5.3151,-9.85718 z"
       id="path5953" />
    <ellipse
       style="fill:none;fill-opacity:0.980392;stroke:#363032;stroke-width:1.09041"
       id="path12875"
       cx="100.29762"
       cy="69.361908"
       rx="39.454792"
       ry="39.454796" />
    <path
       sodipodi:type="star"
       style="fill:#ff3333;fill-opacity:0.98039216;stroke:none;stroke-width:0.264999;stroke-dasharray:none;stroke-opacity:1"
       id="path15449"
       inkscape:flatsided="false"
       sodipodi:sides="5"
       sodipodi:cx="23.92527"
       sodipodi:cy="35.99015"
       sodipodi:r1="6.8709683"
       sodipodi:r2="3.4354842"
       sodipodi:arg1="0.93324753"
       sodipodi:arg2="1.5615661"
       inkscape:rounded="0"
       inkscape:randomized="0"
       d="m 28.01506,41.511366 -4.05808,-2.085878 -4.018884,2.160433 0.729773,-4.504035 -3.296598,-3.154575 4.509104,-0.697769 1.981475,-4.110067 2.057007,4.07279 4.521216,0.614414 -3.237804,3.214891 z"
       inkscape:transform-center-x="0.019598153"
       inkscape:transform-center-y="-0.63745297"
       transform="translate(51.735841,50.150547)" />
    <path
       sodipodi:type="star"
       style="fill:#ff3333;fill-opacity:0.98039216;stroke:none;stroke-width:0.264999;stroke-dasharray:none;stroke-opacity:1"
       id="path15449-0"
       inkscape:flatsided="false"
       sodipodi:sides="5"
       sodipodi:cx="23.92527"
       sodipodi:cy="35.99015"
       sodipodi:r1="6.8709683"
       sodipodi:r2="3.4354842"
       sodipodi:arg1="0.93324753"
       sodipodi:arg2="1.5615661"
       inkscape:rounded="0"
       inkscape:randomized="0"
       d="m 28.01506,41.511366 -4.05808,-2.085878 -4.018884,2.160433 0.729773,-4.504035 -3.296598,-3.154575 4.509104,-0.697769 1.981475,-4.110067 2.057007,4.07279 4.521216,0.614414 -3.237804,3.214891 z"
       inkscape:transform-center-x="0.019598153"
       inkscape:transform-center-y="-0.63745297"
       transform="translate(66.888516,62.150547)" />
    <path
       sodipodi:type="star"
       style="fill:#ff3333;fill-opacity:0.98039216;stroke:none;stroke-width:0.264999;stroke-dasharray:none;stroke-opacity:1"
       id="path15449-4"
       inkscape:flatsided="false"
       sodipodi:sides="5"
       sodipodi:cx="23.92527"
       sodipodi:cy="35.99015"
       sodipodi:r1="6.8709683"
       sodipodi:r2="3.4354842"
       sodipodi:arg1="0.93324753"
       sodipodi:arg2="1.5615661"
       inkscape:rounded="0"
       inkscape:randomized="0"
       d="m 28.01506,41.511366 -4.05808,-2.085878 -4.018884,2.160433 0.729773,-4.504035 -3.296598,-3.154575 4.509104,-0.697769 1.981475,-4.110067 2.057007,4.07279 4.521216,0.614414 -3.237804,3.214891 z"
       inkscape:transform-center-x="0.019598153"
       inkscape:transform-center-y="-0.63745297"
       transform="translate(87.541957,62.150547)" />
    <path
       sodipodi:type="star"
       style="fill:#ff3333;fill-opacity:0.98039216;stroke:none;stroke-width:0.264999;stroke-dasharray:none;stroke-opacity:1"
       id="path15449-5"
       inkscape:flatsided="false"
       sodipodi:sides="5"
       sodipodi:cx="23.92527"
       sodipodi:cy="35.99015"
       sodipodi:r1="6.8709683"
       sodipodi:r2="3.4354842"
       sodipodi:arg1="0.93324753"
       sodipodi:arg2="1.5615661"
       inkscape:rounded="0"
       inkscape:randomized="0"
       d="m 28.01506,41.511366 -4.05808,-2.085878 -4.018884,2.160433 0.729773,-4.504035 -3.296598,-3.154575 4.509104,-0.697769 1.981475,-4.110067 2.057007,4.07279 4.521216,0.614414 -3.237804,3.214891 z"
       inkscape:transform-center-x="0.019598153"
       inkscape:transform-center-y="-0.63745297"
       transform="translate(102.67417,50.150547)" />
  </g>
</svg>
