<?xml version="1.0" encoding="UTF-8" standalone="no"?>
<!-- Created with Inkscape (http://www.inkscape.org/) -->

<svg
   width="144.21967mm"
   height="119.0287mm"
   viewBox="0 0 144.21967 119.0287"
   version="1.1"
   id="svg10185"
   xmlns:inkscape="http://www.inkscape.org/namespaces/inkscape"
   xmlns:sodipodi="http://sodipodi.sourceforge.net/DTD/sodipodi-0.dtd"
   xmlns="http://www.w3.org/2000/svg"
   xmlns:svg="http://www.w3.org/2000/svg">
  <sodipodi:namedview
     id="namedview10187"
     pagecolor="#ffffff"
     bordercolor="#000000"
     borderopacity="0.25"
     inkscape:showpageshadow="2"
     inkscape:pageopacity="0.0"
     inkscape:pagecheckerboard="0"
     inkscape:deskcolor="#d1d1d1"
     inkscape:document-units="mm"
     showgrid="false" />
  <defs
     id="defs10182" />
  <g
     inkscape:label="Ebene 1"
     inkscape:groupmode="layer"
     id="layer1"
     transform="translate(-33.23811,-51.999999)">
    <circle
       style="fill:none;fill-opacity:0.980392;stroke:#363032;stroke-width:3.85027;stroke-dasharray:none;stroke-opacity:1"
       id="path10417"
       cx="103.41118"
       cy="114.40017"
       r="54.703392" />
    <g
       aria-label="Grandline"
       id="text11562"
       style="font-size:50.8px;font-family:Haettenschweiler;-inkscape-font-specification:Haettenschweiler;fill:#ffffff;fill-opacity:0.980392;stroke:#363032;stroke-width:1.047">
      <path
         d="m 50.976064,123.48491 h -3.745508 l -1.016992,-1.95957 q -2.579687,2.28203 -5.457031,2.28203 -2.80293,0 -4.911328,-1.43867 -2.083594,-1.46348 -2.083594,-4.63848 V 94.513034 q 0,-6.920507 8.830469,-6.920507 8.383984,0 8.383984,6.30039 v 6.598043 h -7.069336 v -7.193355 q 0,-0.868164 -1.16582,-0.868164 -1.16582,0 -1.16582,0.868164 v 24.680665 q 0,0.86816 1.16582,0.86816 1.16582,0 1.16582,-0.86816 v -6.64766 h -1.612304 v -5.45703 h 8.68164 z"
         id="path12570" />
      <path
         d="m 69.306727,106.61772 h -7.069335 v -6.25078 q 0,-1.314648 -1.21543,-1.314648 -1.21543,0 -1.21543,1.265038 v 23.16758 H 52.737196 V 94.686667 h 7.069336 v 0.967383 q 1.413867,-1.16582 4.365625,-1.16582 2.108399,0 3.621484,1.141015 1.513086,1.116211 1.513086,2.951758 z"
         id="path12572" />
      <path
         d="m 87.314928,123.48491 h -6.250781 v -1.11621 q -0.79375,1.51308 -4.539258,1.51308 -5.779492,0 -5.779492,-4.51445 v -5.77949 q 0,-1.93477 1.389063,-3.37344 1.413867,-1.43867 5.655468,-3.59668 2.455664,-1.24023 2.455664,-1.98437 v -4.26641 q 0,-1.413867 -1.215429,-1.413867 -1.389063,0 -1.389063,3.447847 0,0.62012 0.07441,1.83555 0.09922,1.21543 0.09922,1.83555 h -6.821289 v -5.75469 q 0,-5.8291 8.433594,-5.8291 7.88789,0 7.88789,6.07715 z m -7.069336,-5.38262 v -7.4166 q -2.430859,0.59531 -2.430859,2.18281 v 5.23379 q 0,1.31465 1.265039,1.31465 1.16582,0 1.16582,-1.31465 z"
         id="path12574" />
      <path
         d="m 105.52157,123.48491 h -7.069336 v -23.11797 q 0,-1.314648 -1.215429,-1.314648 -1.21543,0 -1.21543,1.265038 v 23.16758 H 88.952039 V 94.686667 h 7.069336 v 0.967383 q 1.413867,-1.16582 4.365625,-1.16582 1.90996,0 3.52227,1.041797 1.6123,1.041797 1.6123,3.050976 z"
         id="path12576" />
      <path
         d="m 123.57938,123.48491 h -5.333 l -0.59532,-0.96738 q -1.81074,1.36425 -4.11757,1.36425 -2.70371,0 -4.61368,-1.26503 -1.88515,-1.26504 -1.88515,-3.44786 V 98.481784 q 0,-1.835546 1.48828,-2.902148 1.51309,-1.091406 3.64629,-1.091406 2.92695,0 4.36562,1.066601 v -7.639843 h 7.04453 z m -7.04453,-5.38262 v -17.88418 q 0,-1.265037 -1.21543,-1.265037 -1.24023,0 -1.24023,1.314647 v 17.83457 q 0,1.31465 1.24023,1.31465 1.21543,0 1.21543,-1.31465 z"
         id="path12578" />
      <path
         d="m 132.26102,123.48491 h -7.06934 V 87.914988 h 7.06934 z"
         id="path12580" />
      <path
         d="m 140.81864,93.099167 h -7.06934 v -5.184179 h 7.06934 z m 0,30.385743 H 133.7493 V 94.686667 h 7.06934 z"
         id="path12582" />
      <path
         d="m 158.85165,123.48491 h -7.06934 v -23.11797 q 0,-1.314648 -1.21543,-1.314648 -1.21543,0 -1.21543,1.265038 v 23.16758 h -7.06933 V 94.686667 h 7.06933 v 0.967383 q 1.41387,-1.16582 4.36563,-1.16582 1.90996,0 3.52226,1.041797 1.61231,1.041797 1.61231,3.050976 z"
         id="path12584" />
      <path
         d="m 176.93427,111.281 h -9.5002 v 6.72207 q 0,1.46348 1.24024,1.46348 1.21543,0 1.21543,-1.46348 v -5.80429 h 7.04453 v 5.8539 q 0,5.8291 -8.30957,5.8291 -8.23516,0 -8.23516,-6.07714 v -17.23926 q 0,-6.07715 8.23516,-6.07715 8.30957,0 8.30957,5.8291 z m -7.04453,-4.31601 v -6.59805 q 0,-1.413867 -1.21543,-1.413867 -1.24024,0 -1.24024,1.413867 v 6.59805 z"
         id="path12586" />
    </g>
    <g
       aria-label="Hotel"
       id="text11679"
       style="font-size:35.2778px;font-family:Haettenschweiler;-inkscape-font-specification:Haettenschweiler;fill:#ffffff;fill-opacity:0.980392;stroke:#363032;stroke-width:1.047">
      <path
         d="m 89.5205,152.11491 h -5.42603 v -11.85113 h -1.515843 v 11.85113 h -5.426029 v -24.70135 h 5.426029 v 9.85298 h 1.515843 v -9.85298 h 5.42603 z"
         id="path12589" />
      <path
         d="m 90.485127,148.17028 v -11.97172 q 0,-4.22024 5.83944,-4.22024 2.256539,0 3.961863,0.98185 1.72255,0.98185 1.72255,3.06614 v 12.31622 q 0,4.04799 -5.684413,4.04799 -5.83944,0 -5.83944,-4.22024 z m 6.614587,0.1378 v -12.24732 q 0,-0.98185 -0.844049,-0.98185 -0.861274,0 -0.861274,0.98185 v 12.24732 q 0,1.0163 0.861274,1.0163 0.844049,0 0.844049,-1.0163 z"
         id="path12591" />
      <path
         d="m 112.72323,152.11491 h -3.10059 q -3.32452,0 -3.97908,-0.99907 -0.65457,-0.99908 -0.65457,-3.84129 v -12.19564 h -2.18764 v -2.96279 h 2.18764 v -4.03076 h 4.90926 v 4.03076 h 2.65273 v 2.96279 h -2.65273 v 12.16119 q 0,0.8785 0.51677,1.18856 0.53399,0.29283 2.30821,0.29283 z"
         id="path12593" />
      <path
         d="m 125.14281,143.63997 h -6.59736 v 4.66811 q 0,1.0163 0.86127,1.0163 0.84405,0 0.84405,-1.0163 v -4.03076 h 4.89204 v 4.06521 q 0,4.04799 -5.77054,4.04799 -5.71886,0 -5.71886,-4.22024 v -11.97172 q 0,-4.22024 5.71886,-4.22024 5.77054,0 5.77054,4.04799 z m -4.89204,-2.99723 v -4.58198 q 0,-0.98185 -0.84405,-0.98185 -0.86127,0 -0.86127,0.98185 v 4.58198 z"
         id="path12595" />
      <path
         d="m 131.18896,152.11491 h -4.90927 v -24.70135 h 4.90927 z"
         id="path12597" />
    </g>
    <path
       sodipodi:type="star"
       style="fill:#ffffff;fill-opacity:0.980392;stroke:#363032;stroke-width:1.047;stroke-dasharray:none;stroke-opacity:1"
       id="path11783"
       inkscape:flatsided="false"
       sodipodi:sides="5"
       sodipodi:cx="32.389484"
       sodipodi:cy="19.08666"
       sodipodi:r1="8.1025333"
       sodipodi:r2="4.0512671"
       sodipodi:arg1="0.96299433"
       sodipodi:arg2="1.5913129"
       inkscape:rounded="0"
       inkscape:randomized="0"
       d="m 37.016553,25.738072 -4.710181,-2.600997 -4.812913,2.405589 1.018169,-5.283401 -3.775123,-3.833985 5.339445,-0.664324 2.479759,-4.775122 2.281789,4.872826 5.307698,0.882797 -3.929222,3.675897 z"
       inkscape:transform-center-x="-0.051365708"
       inkscape:transform-center-y="-0.72470841"
       transform="translate(39.38074,50.608569)" />
    <path
       sodipodi:type="star"
       style="fill:#fffefe;fill-opacity:0.980392;stroke:#363032;stroke-width:1.047;stroke-dasharray:none;stroke-opacity:1"
       id="path11783-7"
       inkscape:flatsided="false"
       sodipodi:sides="5"
       sodipodi:cx="32.389484"
       sodipodi:cy="19.08666"
       sodipodi:r1="8.1025333"
       sodipodi:r2="4.0512671"
       sodipodi:arg1="0.96299433"
       sodipodi:arg2="1.5913129"
       inkscape:rounded="0"
       inkscape:randomized="0"
       d="m 37.016553,25.738072 -4.710181,-2.600997 -4.812913,2.405589 1.018169,-5.283401 -3.775123,-3.833985 5.339445,-0.664324 2.479759,-4.775122 2.281789,4.872826 5.307698,0.882797 -3.929222,3.675897 z"
       inkscape:transform-center-x="-0.051365708"
       inkscape:transform-center-y="-0.72470841"
       transform="translate(59.225459,42.196794)" />
    <path
       sodipodi:type="star"
       style="fill:#ffffff;fill-opacity:0.980392;stroke:#363032;stroke-width:1.047;stroke-dasharray:none;stroke-opacity:1"
       id="path11783-5"
       inkscape:flatsided="false"
       sodipodi:sides="5"
       sodipodi:cx="32.389484"
       sodipodi:cy="19.08666"
       sodipodi:r1="8.1025333"
       sodipodi:r2="4.0512671"
       sodipodi:arg1="0.96299433"
       sodipodi:arg2="1.5913129"
       inkscape:rounded="0"
       inkscape:randomized="0"
       d="m 37.016553,25.738072 -4.710181,-2.600997 -4.812913,2.405589 1.018169,-5.283401 -3.775123,-3.833985 5.339445,-0.664324 2.479759,-4.775122 2.281789,4.872826 5.307698,0.882797 -3.929222,3.675897 z"
       inkscape:transform-center-x="-0.051365708"
       inkscape:transform-center-y="-0.72470841"
       transform="translate(82.97174,42.196794)" />
    <path
       sodipodi:type="star"
       style="fill:#ffffff;fill-opacity:0.980392;stroke:#363032;stroke-width:1.047;stroke-dasharray:none;stroke-opacity:1"
       id="path11783-9"
       inkscape:flatsided="false"
       sodipodi:sides="5"
       sodipodi:cx="32.389484"
       sodipodi:cy="19.08666"
       sodipodi:r1="8.1025333"
       sodipodi:r2="4.0512671"
       sodipodi:arg1="0.96299433"
       sodipodi:arg2="1.5913129"
       inkscape:rounded="0"
       inkscape:randomized="0"
       d="m 37.016553,25.738072 -4.710181,-2.600997 -4.812913,2.405589 1.018169,-5.283401 -3.775123,-3.833985 5.339445,-0.664324 2.479759,-4.775122 2.281789,4.872826 5.307698,0.882797 -3.929222,3.675897 z"
       inkscape:transform-center-x="-0.051365708"
       inkscape:transform-center-y="-0.72470841"
       transform="translate(102.53674,50.196794)" />
  </g>
</svg>
