<?xml version="1.0" encoding="UTF-8" standalone="no"?>
<!-- Created with Inkscape (http://www.inkscape.org/) -->

<svg
   width="143.71967mm"
   height="72.268127mm"
   viewBox="0 0 143.71967 72.268127"
   version="1.1"
   id="svg5"
   inkscape:export-filename="logo_4.svg"
   inkscape:export-xdpi="96"
   inkscape:export-ydpi="96"
   sodipodi:docname="logo_4.svg"
   inkscape:version="1.2.1 (9c6d41e410, 2022-07-14)"
   xmlns:inkscape="http://www.inkscape.org/namespaces/inkscape"
   xmlns:sodipodi="http://sodipodi.sourceforge.net/DTD/sodipodi-0.dtd"
   xmlns:xlink="http://www.w3.org/1999/xlink"
   xmlns="http://www.w3.org/2000/svg"
   xmlns:svg="http://www.w3.org/2000/svg">
  <sodipodi:namedview
     id="namedview7"
     pagecolor="#ffffff"
     bordercolor="#000000"
     borderopacity="0.25"
     inkscape:showpageshadow="2"
     inkscape:pageopacity="0.0"
     inkscape:pagecheckerboard="0"
     inkscape:deskcolor="#d1d1d1"
     inkscape:document-units="mm"
     showgrid="false"
     inkscape:zoom="2.5405361"
     inkscape:cx="239.12276"
     inkscape:cy="136.78215"
     inkscape:window-width="2560"
     inkscape:window-height="1351"
     inkscape:window-x="-9"
     inkscape:window-y="-9"
     inkscape:window-maximized="1"
     inkscape:current-layer="layer1" />
  <defs
     id="defs2">
    <linearGradient
       inkscape:collect="always"
       id="linearGradient994">
      <stop
         style="stop-color:#2d2d30;stop-opacity:1;"
         offset="0.43701801"
         id="stop990" />
      <stop
         style="stop-color:#ffffff;stop-opacity:1;"
         offset="1"
         id="stop992" />
    </linearGradient>
    <linearGradient
       inkscape:collect="always"
       xlink:href="#linearGradient994"
       id="linearGradient8478"
       x1="107.52122"
       y1="110.36421"
       x2="107.51254"
       y2="73.636856"
       gradientUnits="userSpaceOnUse"
       spreadMethod="pad" />
  </defs>
  <g
     inkscape:label="Ebene 1"
     inkscape:groupmode="layer"
     id="layer1"
     transform="translate(-37.825993,-65.357924)">
    <path
       style="fill:#ff3333;fill-opacity:0.980392;stroke:none;stroke-width:0.847"
       d="M 159.89271,65.297988 C 91.943301,98.74966 94.364254,76.225022 57.520987,136.89188 l 0.01523,0.28919 C 107.83579,113.37042 153.93398,122.00399 160.06343,65.344466 Z"
       id="path458"
       sodipodi:nodetypes="ccccc" />
    <g
       aria-label="Grandline"
       id="text236"
       style="font-size:50.8px;font-family:Haettenschweiler;-inkscape-font-specification:Haettenschweiler;fill:url(#linearGradient8478);fill-opacity:1;stroke:#363032;stroke-width:1.047;stroke-dasharray:none">
      <path
         d="m 55.313947,109.89288 h -3.745508 l -1.016992,-1.95957 q -2.579687,2.28203 -5.457031,2.28203 -2.80293,0 -4.911328,-1.43867 -2.083594,-1.46347 -2.083594,-4.63847 V 80.921009 q 0,-6.920508 8.830469,-6.920508 8.383984,0 8.383984,6.300391 v 6.598046 h -7.069336 v -7.193359 q 0,-0.868164 -1.16582,-0.868164 -1.16582,0 -1.16582,0.868164 v 24.680661 q 0,0.86817 1.16582,0.86817 1.16582,0 1.16582,-0.86817 v -6.647653 h -1.612304 v -5.457032 h 8.68164 z"
         id="path8391"
         style="fill:#ffffff;fill-opacity:0.98039198;stroke-width:1.047;stroke-dasharray:none" />
      <path
         d="m 73.64461,93.025696 h -7.069335 v -6.250781 q 0,-1.314649 -1.21543,-1.314649 -1.21543,0 -1.21543,1.26504 V 109.89288 H 57.075079 V 81.094642 h 7.069336 v 0.967382 q 1.413867,-1.16582 4.365625,-1.16582 2.108399,0 3.621484,1.141016 1.513086,1.116211 1.513086,2.951757 z"
         id="path8393"
         style="fill:#ffffff;fill-opacity:0.98039198;stroke-width:1.047;stroke-dasharray:none" />
      <path
         d="M 91.652811,109.89288 H 85.40203 v -1.11621 q -0.79375,1.51309 -4.539258,1.51309 -5.779492,0 -5.779492,-4.51445 v -5.779497 q 0,-1.934765 1.389063,-3.373437 1.413867,-1.438672 5.655468,-3.59668 2.455664,-1.240234 2.455664,-1.984375 v -4.266406 q 0,-1.413867 -1.215429,-1.413867 -1.389063,0 -1.389063,3.447851 0,0.620117 0.07441,1.835547 0.09922,1.21543 0.09922,1.835547 h -6.821289 v -5.754687 q 0,-5.829102 8.433594,-5.829102 7.88789,0 7.88789,6.077148 z m -7.069336,-5.38261 v -7.416605 q -2.430859,0.595312 -2.430859,2.182812 v 5.233793 q 0,1.31464 1.265039,1.31464 1.16582,0 1.16582,-1.31464 z"
         id="path8395"
         style="fill:#ffffff;fill-opacity:0.98039198;stroke-width:1.047;stroke-dasharray:none" />
      <path
         d="m 109.85945,109.89288 h -7.06933 V 86.774915 q 0,-1.314649 -1.21543,-1.314649 -1.21543,0 -1.21543,1.26504 V 109.89288 H 93.289922 V 81.094642 h 7.069338 v 0.967382 q 1.41387,-1.16582 4.36562,-1.16582 1.90996,0 3.52227,1.041797 1.6123,1.041797 1.6123,3.050976 z"
         id="path8397"
         style="fill:#ffffff;fill-opacity:0.98039198;stroke-width:1.047;stroke-dasharray:none" />
      <path
         d="m 127.91727,109.89288 h -5.33301 l -0.59531,-0.96738 q -1.81075,1.36426 -4.11758,1.36426 -2.70371,0 -4.61367,-1.26504 -1.88516,-1.26504 -1.88516,-3.44785 V 84.889759 q 0,-1.835547 1.48828,-2.902149 1.51309,-1.091406 3.64629,-1.091406 2.92695,0 4.36563,1.066602 v -7.639844 h 7.04453 z m -7.04453,-5.38261 V 86.626087 q 0,-1.265039 -1.21543,-1.265039 -1.24024,0 -1.24024,1.314648 v 17.834574 q 0,1.31464 1.24024,1.31464 1.21543,0 1.21543,-1.31464 z"
         id="path8399"
         style="fill:#ffffff;fill-opacity:0.98039198;stroke-width:1.047;stroke-dasharray:none" />
      <path
         d="m 136.5989,109.89288 h -7.06933 V 74.322962 h 7.06933 z"
         id="path8401"
         style="fill:#ffffff;fill-opacity:0.98039198;stroke-width:1.047;stroke-dasharray:none" />
      <path
         d="m 145.15652,79.507142 h -7.06933 v -5.18418 h 7.06933 z m 0,30.385738 h -7.06933 V 81.094642 h 7.06933 z"
         id="path8403"
         style="fill:#ffffff;fill-opacity:0.98039198;stroke-width:1.047;stroke-dasharray:none" />
      <path
         d="M 163.18953,109.89288 H 156.1202 V 86.774915 q 0,-1.314649 -1.21543,-1.314649 -1.21543,0 -1.21543,1.26504 V 109.89288 H 146.62 V 81.094642 h 7.06934 v 0.967382 q 1.41386,-1.16582 4.36562,-1.16582 1.90996,0 3.52227,1.041797 1.6123,1.041797 1.6123,3.050976 z"
         id="path8405"
         style="fill:#ffffff;fill-opacity:0.98039198;stroke-width:1.047;stroke-dasharray:none" />
      <path
         d="m 181.27215,97.688977 h -9.5002 v 6.722073 q 0,1.46347 1.24024,1.46347 1.21543,0 1.21543,-1.46347 v -5.804299 h 7.04453 v 5.853909 q 0,5.8291 -8.30957,5.8291 -8.23516,0 -8.23516,-6.07715 V 86.973352 q 0,-6.077148 8.23516,-6.077148 8.30957,0 8.30957,5.829102 z m -7.04453,-4.316015 v -6.598047 q 0,-1.413867 -1.21543,-1.413867 -1.24024,0 -1.24024,1.413867 v 6.598047 z"
         id="path8407"
         style="fill:#ffffff;fill-opacity:0.98039198;stroke-width:1.047;stroke-dasharray:none" />
    </g>
    <g
       aria-label="Hotel"
       id="text244"
       style="font-size:35.2778px;font-family:Haettenschweiler;-inkscape-font-specification:Haettenschweiler;fill:#ffffff;fill-opacity:1;stroke:#363032;stroke-width:1.047;stroke-dasharray:none">
      <path
         d="m 93.858383,137.07693 h -5.42603 V 125.2258 H 86.91651 v 11.85113 h -5.426029 v -24.70135 h 5.426029 v 9.85298 h 1.515843 v -9.85298 h 5.42603 z"
         id="path8410"
         style="fill:#ffffff;fill-opacity:1;stroke-width:1.047;stroke-dasharray:none" />
      <path
         d="m 94.82301,133.1323 v -11.97172 q 0,-4.22024 5.83944,-4.22024 2.25654,0 3.96186,0.98185 1.72255,0.98185 1.72255,3.06614 v 12.31622 q 0,4.04799 -5.68441,4.04799 -5.83944,0 -5.83944,-4.22024 z m 6.61459,0.1378 v -12.24732 q 0,-0.98185 -0.84405,-0.98185 -0.861276,0 -0.861276,0.98185 v 12.24732 q 0,1.01631 0.861276,1.01631 0.84405,0 0.84405,-1.01631 z"
         id="path8412"
         style="fill:#ffffff;fill-opacity:1;stroke-width:1.047;stroke-dasharray:none" />
      <path
         d="m 117.06111,137.07693 h -3.10058 q -3.32452,0 -3.97909,-0.99907 -0.65457,-0.99908 -0.65457,-3.84129 v -12.19564 h -2.18764 v -2.96279 h 2.18764 v -4.03076 h 4.90926 v 4.03076 h 2.65273 v 2.96279 h -2.65273 v 12.16119 q 0,0.8785 0.51677,1.18856 0.53399,0.29283 2.30821,0.29283 z"
         id="path8414"
         style="fill:#ffffff;fill-opacity:1;stroke-width:1.047;stroke-dasharray:none" />
      <path
         d="m 129.4807,128.60199 h -6.59737 v 4.66811 q 0,1.01631 0.86128,1.01631 0.84405,0 0.84405,-1.01631 v -4.03076 h 4.89204 v 4.06521 q 0,4.04799 -5.77054,4.04799 -5.71887,0 -5.71887,-4.22024 v -11.97172 q 0,-4.22024 5.71887,-4.22024 5.77054,0 5.77054,4.04799 z m -4.89204,-2.99723 v -4.58198 q 0,-0.98185 -0.84405,-0.98185 -0.86128,0 -0.86128,0.98185 v 4.58198 z"
         id="path8416"
         style="fill:#ffffff;fill-opacity:1;stroke-width:1.047;stroke-dasharray:none" />
      <path
         d="m 135.52684,137.07693 h -4.90926 v -24.70135 h 4.90926 z"
         id="path8418"
         style="fill:#ffffff;fill-opacity:1;stroke-width:1.047;stroke-dasharray:none" />
    </g>
  </g>
</svg>
