<?xml version="1.0" encoding="UTF-8" standalone="no"?>
<!-- Created with Inkscape (http://www.inkscape.org/) -->

<svg
   width="95.749191mm"
   height="79.56115mm"
   viewBox="0 0 95.749193 79.56115"
   version="1.1"
   id="svg5355"
   inkscape:export-filename="logo_3_variante_2.svg"
   inkscape:export-xdpi="82.240738"
   inkscape:export-ydpi="82.240738"
   inkscape:version="1.2.1 (9c6d41e410, 2022-07-14)"
   sodipodi:docname="logo_3_variante_2.svg"
   xmlns:inkscape="http://www.inkscape.org/namespaces/inkscape"
   xmlns:sodipodi="http://sodipodi.sourceforge.net/DTD/sodipodi-0.dtd"
   xmlns="http://www.w3.org/2000/svg"
   xmlns:svg="http://www.w3.org/2000/svg">
  <sodipodi:namedview
     id="namedview5357"
     pagecolor="#ffffff"
     bordercolor="#000000"
     borderopacity="0.25"
     inkscape:showpageshadow="2"
     inkscape:pageopacity="0.0"
     inkscape:pagecheckerboard="0"
     inkscape:deskcolor="#d1d1d1"
     inkscape:document-units="mm"
     showgrid="false"
     inkscape:zoom="7.319248"
     inkscape:cx="195.51189"
     inkscape:cy="54.991988"
     inkscape:window-width="2560"
     inkscape:window-height="1351"
     inkscape:window-x="-9"
     inkscape:window-y="-9"
     inkscape:window-maximized="1"
     inkscape:current-layer="layer1" />
  <defs
     id="defs5352" />
  <g
     inkscape:label="Ebene 1"
     inkscape:groupmode="layer"
     id="layer1"
     transform="translate(-51.28186,-96.371804)">
    <path
       style="fill:#2d2d30;fill-opacity:1;stroke:#ffffff;stroke-width:0.847;stroke-dasharray:none;stroke-opacity:1"
       d="m 51.765334,167.15287 37.207628,-70.273607 23.677578,7.256507 33.82511,62.63518 c 4.43535,11.23973 -97.684451,11.92317 -94.710316,0.38192 z"
       id="path5902"
       sodipodi:nodetypes="ccccc" />
    <path
       style="fill:#ff3333;fill-opacity:1;stroke:none;stroke-width:0.829522;stroke-dasharray:none;stroke-opacity:1"
       d="m 89.186453,97.39402 -8.371964,15.78713 8.633587,-2.2365 9.549272,2.63119 8.633582,-2.63119 9.8109,2.89431 -5.23247,-9.60385 z"
       id="path5953" />
    <path
       sodipodi:type="star"
       style="fill:#ff3333;fill-opacity:0.980392;stroke:none;stroke-width:0.264999;stroke-dasharray:none;stroke-opacity:1"
       id="path15449"
       inkscape:flatsided="false"
       sodipodi:sides="5"
       sodipodi:cx="19.017523"
       sodipodi:cy="43.351772"
       sodipodi:r1="6.8709683"
       sodipodi:r2="3.4354842"
       sodipodi:arg1="0.93324753"
       sodipodi:arg2="1.5615661"
       inkscape:rounded="0"
       inkscape:randomized="0"
       d="m 23.107312,48.872988 -4.058079,-2.085878 -4.018884,2.160433 0.729772,-4.504035 -3.296597,-3.154575 4.509104,-0.697769 1.981475,-4.110067 2.057007,4.07279 4.521216,0.614414 -3.237804,3.214891 z"
       inkscape:transform-center-x="0.019598153"
       inkscape:transform-center-y="-0.63745297"
       transform="translate(45.601158,120.25019)" />
    <path
       sodipodi:type="star"
       style="fill:#ff3333;fill-opacity:0.980392;stroke:none;stroke-width:0.264999;stroke-dasharray:none;stroke-opacity:1"
       id="path15449-0"
       inkscape:flatsided="false"
       sodipodi:sides="5"
       sodipodi:cx="32.92281"
       sodipodi:cy="46.623604"
       sodipodi:r1="6.8709683"
       sodipodi:r2="3.4354842"
       sodipodi:arg1="0.93324753"
       sodipodi:arg2="1.5615661"
       inkscape:rounded="0"
       inkscape:randomized="0"
       d="m 37.012599,52.14482 -4.05808,-2.085878 -4.018883,2.160433 0.729772,-4.504036 -3.296597,-3.154575 4.509104,-0.697768 1.981475,-4.110068 2.057007,4.072791 4.521216,0.614413 -3.237804,3.214892 z"
       inkscape:transform-center-x="0.019598153"
       inkscape:transform-center-y="-0.63745297"
       transform="translate(66.435036,120.97835)" />
    <path
       sodipodi:type="star"
       style="fill:#ff3333;fill-opacity:0.980392;stroke:none;stroke-width:0.264999;stroke-dasharray:none;stroke-opacity:1"
       id="path15449-4"
       inkscape:flatsided="false"
       sodipodi:sides="5"
       sodipodi:cx="-3.2718325"
       sodipodi:cy="45.805645"
       sodipodi:r1="6.8709683"
       sodipodi:r2="3.4354842"
       sodipodi:arg1="0.93324753"
       sodipodi:arg2="1.5615661"
       inkscape:rounded="0"
       inkscape:randomized="0"
       d="m 0.81795718,51.326861 -4.05807978,-2.085878 -4.0188839,2.160433 0.7297725,-4.504035 -3.2965972,-3.154576 4.509104,-0.697768 1.9814748,-4.110068 2.057007,4.072791 4.5212159,0.614413 -3.23780366,3.214892 z"
       inkscape:transform-center-x="0.019598153"
       inkscape:transform-center-y="-0.63745297"
       transform="translate(84.065635,120.79631)" />
    <path
       sodipodi:type="star"
       style="fill:#ff3333;fill-opacity:0.980392;stroke:none;stroke-width:0.264999;stroke-dasharray:none;stroke-opacity:1"
       id="path15449-5"
       inkscape:flatsided="false"
       sodipodi:sides="5"
       sodipodi:cx="13.291816"
       sodipodi:cy="45.396667"
       sodipodi:r1="6.8709683"
       sodipodi:r2="3.4354842"
       sodipodi:arg1="0.93324753"
       sodipodi:arg2="1.5615661"
       inkscape:rounded="0"
       inkscape:randomized="0"
       d="m 17.381605,50.917884 -4.058079,-2.085879 -4.0188842,2.160433 0.7297722,-4.504035 -3.2965969,-3.154575 4.5091039,-0.697769 1.981475,-4.110067 2.057007,4.07279 4.521216,0.614414 -3.237804,3.214891 z"
       inkscape:transform-center-x="0.019598153"
       inkscape:transform-center-y="-0.63745297"
       transform="translate(103.65203,121.20529)" />
    <path
       sodipodi:type="star"
       style="fill:#ff3333;fill-opacity:0.980392;stroke:none;stroke-width:0.264999;stroke-dasharray:none;stroke-opacity:1"
       id="path15449-5-0"
       inkscape:flatsided="false"
       sodipodi:sides="5"
       sodipodi:cx="22.289354"
       sodipodi:cy="35.99015"
       sodipodi:r1="6.8709683"
       sodipodi:r2="3.4354842"
       sodipodi:arg1="0.93324753"
       sodipodi:arg2="1.5615661"
       inkscape:rounded="0"
       inkscape:randomized="0"
       d="m 26.379144,41.511366 -4.05808,-2.085878 -4.018884,2.160433 0.729773,-4.504035 -3.296597,-3.154575 4.509104,-0.697769 1.981474,-4.110067 2.057007,4.07279 4.521216,0.614414 -3.237803,3.214891 z"
       inkscape:transform-center-x="0.019598153"
       inkscape:transform-center-y="-0.63745297"
       transform="translate(110.94349,127.61181)" />
    <g
       aria-label="Grandline Hotel"
       id="text362"
       style="font-size:35.2777px;font-family:'Copperplate Gothic Bold';-inkscape-font-specification:'Copperplate Gothic Bold, ';fill:#ffffff;stroke:#000000;stroke-width:0.20265922;stroke-opacity:1;stroke-dasharray:none;fill-opacity:1"
       transform="matrix(0.86632801,0,0,0.77446375,67.055562,18.048102)">
      <path
         d="m 48.115262,161.13884 h -8.66948 q -0.79749,0 -1.209097,0.35932 -0.385881,0.35933 -0.643137,1.28328 h -0.823214 v -8.16167 h 0.823214 q 0.257256,0.94962 0.643137,1.30895 0.411607,0.33365 1.209097,0.33365 H 56.11588 v 0.8213 q -0.926117,0.25666 -1.311998,0.66731 -0.360157,0.41064 -0.360157,1.20628 v 7.18638 q 0,0.79563 0.360157,1.20629 0.360156,0.41065 1.311998,0.6673 v 0.64165 q -10.007203,5.69777 -19.396998,5.69777 -8.515126,0 -13.891747,-4.02951 -6.765796,-5.0818 -6.765796,-14.1161 0,-8.41832 6.019758,-13.39746 5.711051,-4.72248 15.178021,-4.72248 3.009879,0 5.659601,0.56465 2.675448,0.53897 6.071209,1.84792 1.749331,0.69298 2.495369,0.69298 0.540234,0 1.260548,-0.59032 l 0.720312,0.38498 -4.116073,8.39267 -0.746039,-0.38499 q -0.02572,-0.84696 -0.231529,-1.20627 -0.205803,-0.385 -0.926117,-0.92397 -1.569252,-1.18062 -4.604856,-2.00191 -3.035605,-0.84697 -5.736778,-0.84697 -5.505249,0 -9.132539,3.07987 -4.090347,3.49053 -4.090347,9.21396 0,5.54379 3.987447,8.95731 3.653014,3.1312 9.621322,3.1312 2.906976,0 5.736776,-0.6673 2.829802,-0.66731 4.887838,-1.82225 z"
         id="path3256"
         style="stroke-width:0.20265922;stroke:#000000;stroke-opacity:1;stroke-dasharray:none;fill:#ffffff;fill-opacity:1" />
    </g>
  </g>
</svg>
